<svg width="38" height="65" viewBox="0 0 38 65" fill="none" xmlns="http://www.w3.org/2000/svg">
<path d="M37 19.1136C37 28.0932 30.4244 35.5762 21.8219 36.9903V45.9051C21.8219 47.5431 20.5138 48.8512 18.8758 48.8512C17.2496 48.8512 15.9297 47.5431 15.9297 45.9051V34.2788C15.9297 33.4974 16.2401 32.7481 16.7926 32.1956C17.3451 31.6431 18.0945 31.3327 18.8758 31.3327C25.6164 31.3327 31.1079 25.853 31.1079 19.1124C31.1079 12.4425 25.7342 7.00998 19.0879 6.89213H19.029C13.2311 6.9157 8.29352 10.8634 6.98547 16.4845L6.84406 17.1562C6.72576 17.8392 6.37003 18.4585 5.83965 18.9048C5.30927 19.3511 4.6383 19.5957 3.94513 19.5956C3.78015 19.5956 3.60339 19.572 3.42662 19.5484C3.04586 19.4805 2.68221 19.3382 2.35647 19.1296C2.03074 18.9211 1.74929 18.6504 1.52822 18.333C1.30715 18.0156 1.1508 17.6578 1.06809 17.28C0.985382 16.9021 0.977944 16.5117 1.0462 16.131C1.10512 15.801 1.16404 15.4711 1.24653 15.1529C1.94181 12.1597 3.34413 9.47289 5.25318 7.28101C8.44672 3.58075 13.0897 1.25925 18.2277 1.01178C18.5105 1.01178 18.8051 1 19.0879 1C19.194 1 19.3 1 19.4061 1.01178C29.1517 1.29461 37 9.29612 37 19.1124V19.1136Z" stroke="url(#paint0_linear)" stroke-width="2" stroke-miterlimit="10" stroke-linecap="round" stroke-linejoin="round"/>
<path d="M19.0011 63.4844C20.9536 63.4844 22.5364 61.9016 22.5364 59.9491C22.5364 57.9966 20.9536 56.4138 19.0011 56.4138C17.0486 56.4138 15.4658 57.9966 15.4658 59.9491C15.4658 61.9016 17.0486 63.4844 19.0011 63.4844Z" stroke="url(#paint1_linear)" stroke-width="2" stroke-miterlimit="10" stroke-linecap="round" stroke-linejoin="round"/>
<defs>
<linearGradient id="paint0_linear" x1="19" y1="1" x2="19" y2="48.8512" gradientUnits="userSpaceOnUse">
<stop stop-color="#0E3075"/>
<stop offset="1" stop-color="#39558D"/>
</linearGradient>
<linearGradient id="paint1_linear" x1="19.0011" y1="56.4138" x2="19.0011" y2="63.4844" gradientUnits="userSpaceOnUse">
<stop stop-color="#0E3075"/>
<stop offset="1" stop-color="#39558D"/>
</linearGradient>
</defs>
</svg>
