<svg width="32" height="32" viewBox="0 0 32 32" fill="none" xmlns="http://www.w3.org/2000/svg">
<path d="M17.3662 27.0703C17.5854 23.5957 18.8628 20.3313 21.0603 17.6306C21.8184 16.699 23.188 16.5017 24.178 17.1814C25.1033 17.8167 25.4424 19.0212 24.9846 20.0457L23.8855 22.5044C25.6457 21.3501 26.8391 19.4617 27.1121 17.3616L28.0735 9.96533C28.2009 8.98633 29.0413 8.24805 30.0286 8.24805C31.1157 8.24805 32 9.13232 32 10.2195V12.873C32 13.2183 31.7202 13.498 31.375 13.498C31.0298 13.498 30.75 13.2183 30.75 12.873V10.2195C30.75 9.82178 30.4263 9.49805 30.0286 9.49805C29.6672 9.49805 29.3599 9.76831 29.3132 10.1265L28.3518 17.5227C28.0063 20.1792 26.4048 22.5464 24.0676 23.855C23.6499 24.0891 23.1514 24.0315 22.7978 23.7085C22.4443 23.3855 22.342 22.894 22.5376 22.457L23.8433 19.5356C24.0549 19.0623 23.8982 18.5054 23.4707 18.2119C23.0127 17.898 22.3801 17.9893 22.0298 18.4197C19.9978 20.917 18.8164 23.9356 18.6138 27.1489L18.3447 31.4124C18.3237 31.7434 18.0486 31.9981 17.7214 31.9981C17.7082 31.9981 17.6948 31.9976 17.6814 31.9968C17.3369 31.9749 17.0752 31.678 17.0969 31.3335L17.3662 27.0703Z" fill="#113F59"/>
<path d="M31.375 15.8103C31.2107 15.8103 31.0493 15.7441 30.9331 15.6277C30.8169 15.511 30.75 15.3503 30.75 15.1858C30.75 15.021 30.8169 14.8596 30.9331 14.7434C31.0493 14.6272 31.2107 14.5603 31.375 14.5603C31.5393 14.5603 31.7007 14.6272 31.8169 14.7434C31.9331 14.8596 32 15.021 32 15.1858C32 15.3503 31.9331 15.5115 31.8169 15.6277C31.7007 15.7441 31.5393 15.8103 31.375 15.8103Z" fill="#113F59"/>
<path d="M28.4436 26.2119C29.9309 24.4111 30.75 22.1328 30.75 19.7969V17.4043C30.75 17.0591 31.0298 16.7793 31.375 16.7793C31.7202 16.7793 32 17.0591 32 17.4043V19.7969C32 22.4226 31.0793 24.9836 29.4072 27.0081L25.4736 31.771C25.3501 31.9207 25.1714 31.9981 24.9915 31.9981C24.8513 31.9981 24.7102 31.9512 24.5937 31.855C24.3276 31.635 24.29 31.2412 24.5098 30.9751L28.4436 26.2119Z" fill="#113F59"/>
<path d="M1.97162 8.24805C2.95892 8.24805 3.79925 8.98633 3.92669 9.96533L4.88812 17.3616C5.16107 19.4617 6.35418 21.3501 8.11444 22.5044L7.01556 20.0457C6.5578 19.0213 6.89691 17.8167 7.8222 17.1814C8.81219 16.5017 10.1818 16.699 10.9399 17.6306C13.1374 20.3313 14.4147 23.5957 14.634 27.0703L14.903 31.3338C14.925 31.6783 14.6633 31.9751 14.3188 31.9969C14.3054 31.9976 14.2919 31.9981 14.2787 31.9981C13.9516 31.9981 13.6764 31.7437 13.6555 31.4124L13.3864 27.1492C13.1835 23.9358 12.0024 20.9173 9.97015 18.4197C9.62005 17.989 8.98724 17.898 8.52948 18.2119C8.10198 18.5056 7.945 19.0623 8.15667 19.5357L9.46258 22.4571C9.65789 22.8943 9.55584 23.3855 9.20233 23.7085C8.84881 24.0315 8.35028 24.0891 7.93231 23.8552C5.59515 22.5464 3.99383 20.1792 3.64837 17.523L2.68695 10.1265C2.64032 9.76831 2.3327 9.49805 1.97162 9.49805C1.57367 9.49805 1.25018 9.82178 1.25018 10.2195V19.7971C1.25018 22.1328 2.06927 24.4112 3.55658 26.2122L7.49017 30.9751C7.71014 31.2412 7.67254 31.6353 7.40643 31.855C7.14007 32.075 6.74627 32.0371 6.52655 31.771L2.59295 27.0081C0.920835 24.9837 0.000181198 22.4226 0.000181198 19.7969V10.2195C0.000181198 9.13233 0.884458 8.24805 1.97162 8.24805Z" fill="#113F59"/>
<path d="M8.5 9.02893C8.66431 9.02893 8.82568 9.09583 8.94189 9.21204C9.05811 9.32825 9.125 9.48962 9.125 9.65442C9.125 9.81897 9.05811 9.97961 8.94189 10.0963C8.82568 10.2128 8.66431 10.2789 8.5 10.2789C8.33569 10.2789 8.17432 10.2128 8.05811 10.0963C7.94189 9.97961 7.875 9.81897 7.875 9.65442C7.875 9.48962 7.94189 9.32898 8.05811 9.21204C8.17432 9.09583 8.33569 9.02893 8.5 9.02893Z" fill="#113F59"/>
<path d="M7.87499 13.6152V11.8417C7.87499 11.4965 8.15478 11.2167 8.49999 11.2167C8.84521 11.2167 9.12499 11.4965 9.12499 11.8417V13.2546L15.375 16.863V9.64594L9.12499 6.03754V7.37299C9.12499 7.7182 8.84521 7.99799 8.49999 7.99799C8.15478 7.99799 7.87499 7.7182 7.87499 7.37299V4.95502C7.87499 4.73163 7.99413 4.52533 8.18749 4.41376L15.6875 0.0836792C15.8809 -0.0278931 16.1191 -0.0278931 16.3125 0.0836792L23.8125 4.41376C24.0059 4.52533 24.125 4.73163 24.125 4.95502V13.6152C24.125 13.8386 24.0059 14.0449 23.8125 14.1564L16.3125 18.4868C16.2158 18.5424 16.1079 18.5705 16 18.5705C15.8921 18.5705 15.7842 18.5424 15.6875 18.4868L8.18749 14.1564C7.99413 14.0449 7.87499 13.8386 7.87499 13.6152ZM16 1.34662L9.74999 4.95502L16 8.56342L22.25 4.95502L16 1.34662ZM22.875 6.03754L16.625 9.64594V16.863L22.875 13.2546V6.03754Z" fill="#113F59"/>
</svg>
