<svg width="85" height="50" viewBox="0 0 85 50" fill="none" xmlns="http://www.w3.org/2000/svg">
<path d="M28.8465 32.6922H13.4621C12.3082 32.6922 11.5391 33.4615 11.5391 34.6152C11.5391 35.7689 12.3084 36.5382 13.4621 36.5382H28.8467C30.0006 36.5382 30.7697 35.7689 30.7697 34.6152C30.7697 33.4615 30.0004 32.6922 28.8465 32.6922Z" fill="#113F59"/>
<path d="M23.0762 23.077H7.69157C6.53769 23.077 5.76855 23.8463 5.76855 25C5.76855 26.1537 6.53786 26.923 7.69157 26.923H23.0762C24.2301 26.923 24.9992 26.1537 24.9992 25C24.9992 23.8463 24.2301 23.077 23.0762 23.077Z" fill="#113F59"/>
<path d="M17.3076 13.4616H1.92302C0.769305 13.4616 0 14.2307 0 15.3846C0 16.5385 0.769305 17.3076 1.92302 17.3076H17.3076C18.4615 17.3076 19.2306 16.5383 19.2306 15.3846C19.2306 14.2309 18.4615 13.4616 17.3076 13.4616Z" fill="#113F59"/>
<path d="M76.5379 8.46154C75.9609 7.69223 74.6149 7.50003 73.8456 8.07697L53.461 23.654C51.3457 25.1924 48.461 25.1924 46.3456 23.654L25.9611 8.07697C25.1918 7.50003 23.8457 7.50003 23.2687 8.46154C22.6918 9.23084 22.6918 10.5769 23.6533 11.1539L44.2302 26.7309C45.961 28.0769 48.0764 28.6539 49.9994 28.6539C51.9224 28.6539 54.2302 28.0769 55.7686 26.7309L76.1533 11.1539C76.9226 10.5769 77.1148 9.23084 76.5379 8.46154Z" fill="#113F59"/>
<path d="M78.8463 0H17.3078C16.1539 0 15.3848 0.769305 15.3848 1.92302C15.3848 3.07673 16.1539 3.8462 17.3078 3.8462H78.8463C80.0001 3.8462 80.7693 4.6155 80.7693 5.76921V44.2307C80.7693 45.3845 80 46.1537 78.8463 46.1537H17.3078C16.1539 46.1537 15.3848 46.923 15.3848 48.0767C15.3848 49.2306 16.1541 49.9997 17.3078 49.9997H78.8463C82.1155 49.9997 84.6155 47.4998 84.6155 44.2305V5.76921C84.6155 2.50012 82.1155 0 78.8463 0Z" fill="#113F59"/>
<path d="M76.3458 39.0384L64.8074 27.5C64.0381 26.7307 62.8844 26.7307 62.1151 27.5C61.3458 28.2693 61.3458 29.423 62.1151 30.1923L73.6535 41.7308C74.0381 42.1153 74.615 42.3077 74.9996 42.3077C75.3841 42.3077 75.9611 42.1153 76.3458 41.7308C77.1149 40.9616 77.1149 39.8077 76.3458 39.0384Z" fill="#113F59"/>
</svg>
