<svg width="21" height="20" viewBox="0 0 21 20" fill="none" xmlns="http://www.w3.org/2000/svg">
<path d="M17.9097 11C17.6897 11 17.4597 10.93 17.2397 10.88C16.7942 10.7818 16.3564 10.6515 15.9297 10.49C15.4658 10.3212 14.9559 10.33 14.498 10.5146C14.0402 10.6992 13.6668 11.0466 13.4497 11.49L13.2297 11.94C12.2542 11.3958 11.3562 10.7231 10.5597 9.93999C9.7804 9.14391 9.10807 8.24973 8.55972 7.27999L8.99972 6.99999C9.44308 6.78291 9.7905 6.40952 9.97511 5.95168C10.1597 5.49384 10.1685 4.9839 9.99972 4.51999C9.84094 4.09241 9.71066 3.65479 9.60972 3.20999C9.55972 2.97999 9.51972 2.75999 9.48972 2.52999C9.36828 1.82561 8.99934 1.18773 8.44934 0.731229C7.89934 0.274727 7.20442 0.029599 6.48972 0.0399902H3.48972C3.06697 0.0394364 2.64887 0.128238 2.26284 0.300574C1.87681 0.47291 1.53155 0.724888 1.24972 1.03999C0.963409 1.36249 0.749992 1.74292 0.624016 2.15536C0.498041 2.5678 0.462467 3.00256 0.519719 3.42999C1.04643 7.61703 2.9521 11.5096 5.93612 14.4936C8.92014 17.4776 12.8127 19.3833 16.9997 19.91C17.1295 19.9199 17.2599 19.9199 17.3897 19.91C18.1854 19.91 18.9484 19.5939 19.511 19.0313C20.0736 18.4687 20.3897 17.7056 20.3897 16.91V13.91C20.3793 13.2122 20.126 12.5399 19.6734 12.0087C19.2207 11.4776 18.597 11.1209 17.9097 11ZM18.3997 17C18.4014 17.1449 18.3715 17.2885 18.3121 17.4208C18.2528 17.553 18.1654 17.6708 18.056 17.7659C17.9466 17.861 17.8178 17.9312 17.6786 17.9717C17.5394 18.0121 17.393 18.0217 17.2497 18C13.5159 17.5128 10.0468 15.8081 7.37972 13.15C4.71472 10.4648 3.01296 6.97343 2.53972 3.21999C2.518 3.07332 2.52916 2.92366 2.57239 2.78184C2.61563 2.64002 2.68987 2.50959 2.78972 2.39999C2.88231 2.29458 2.99605 2.20983 3.12354 2.15125C3.25103 2.09267 3.38942 2.06158 3.52972 2.05999H6.52972C6.76227 2.05482 6.98934 2.13087 7.17186 2.27506C7.35438 2.41925 7.48093 2.62256 7.52972 2.84999C7.56972 3.12332 7.61972 3.39332 7.67972 3.65999C7.79524 4.18713 7.94898 4.70517 8.13972 5.20999L6.73972 5.85999C6.62002 5.91491 6.51234 5.99294 6.42288 6.08959C6.33341 6.18623 6.26392 6.2996 6.21839 6.42318C6.17286 6.54677 6.15219 6.67812 6.15757 6.80971C6.16294 6.9413 6.19426 7.07054 6.24972 7.18999C7.68892 10.2727 10.167 12.7508 13.2497 14.19C13.4932 14.29 13.7663 14.29 14.0097 14.19C14.2579 14.0976 14.4593 13.9106 14.5697 13.67L15.1997 12.27C15.7167 12.4549 16.2443 12.6085 16.7797 12.73C17.0397 12.79 17.3197 12.84 17.5897 12.88C17.8153 12.9308 18.0163 13.0582 18.1585 13.2405C18.3007 13.4229 18.3754 13.6488 18.3697 13.88L18.3997 17Z" fill="#5C5C5C"/>
</svg>
