<svg width="170" height="184" viewBox="0 0 170 184" fill="none" xmlns="http://www.w3.org/2000/svg">
<path d="M-46.3811 177.045C-46.3811 173.284 -49.4298 170.235 -53.1905 170.235C-56.9513 170.235 -59.9999 173.284 -59.9999 177.045C-59.9999 180.805 -56.9513 183.854 -53.1905 183.854C-49.4298 183.854 -46.3811 180.805 -46.3811 177.045Z" fill="white" fill-opacity="0.51"/>
<path d="M-22.3388 177.045C-22.3388 173.284 -25.3874 170.235 -29.1482 170.235C-32.9089 170.235 -35.9576 173.284 -35.9576 177.045C-35.9576 180.805 -32.9089 183.854 -29.1482 183.854C-25.3874 183.854 -22.3388 180.805 -22.3388 177.045Z" fill="white" fill-opacity="0.51"/>
<path d="M1.70358 177.045C1.70358 173.284 -1.34509 170.235 -5.10583 170.235C-8.86658 170.235 -11.9152 173.284 -11.9152 177.045C-11.9152 180.805 -8.86658 183.854 -5.10583 183.854C-1.34509 183.854 1.70358 180.805 1.70358 177.045Z" fill="white" fill-opacity="0.51"/>
<path d="M25.7459 177.045C25.7459 173.284 22.6973 170.235 18.9365 170.235C15.1758 170.235 12.1271 173.284 12.1271 177.045C12.1271 180.805 15.1758 183.854 18.9365 183.854C22.6973 183.854 25.7459 180.805 25.7459 177.045Z" fill="white" fill-opacity="0.51"/>
<path d="M49.7883 177.045C49.7883 173.284 46.7396 170.235 42.9789 170.235C39.2181 170.235 36.1694 173.284 36.1694 177.045C36.1694 180.805 39.2181 183.854 42.9789 183.854C46.7396 183.854 49.7883 180.805 49.7883 177.045Z" fill="white" fill-opacity="0.51"/>
<path d="M73.8306 177.045C73.8306 173.284 70.7819 170.235 67.0212 170.235C63.2605 170.235 60.2118 173.284 60.2118 177.045C60.2118 180.805 63.2605 183.854 67.0212 183.854C70.7819 183.854 73.8306 180.805 73.8306 177.045Z" fill="white" fill-opacity="0.51"/>
<path d="M97.873 177.045C97.873 173.284 94.8243 170.235 91.0635 170.235C87.3028 170.235 84.2541 173.284 84.2541 177.045C84.2541 180.805 87.3028 183.854 91.0635 183.854C94.8243 183.854 97.873 180.805 97.873 177.045Z" fill="white" fill-opacity="0.51"/>
<path d="M121.915 177.045C121.915 173.284 118.867 170.235 115.106 170.235C111.345 170.235 108.296 173.284 108.296 177.045C108.296 180.805 111.345 183.854 115.106 183.854C118.867 183.854 121.915 180.805 121.915 177.045Z" fill="white" fill-opacity="0.51"/>
<path d="M145.958 177.045C145.958 173.284 142.909 170.235 139.148 170.235C135.387 170.235 132.339 173.284 132.339 177.045C132.339 180.805 135.387 183.854 139.148 183.854C142.909 183.854 145.958 180.805 145.958 177.045Z" fill="white" fill-opacity="0.51"/>
<path d="M170 177.045C170 173.284 166.951 170.235 163.191 170.235C159.43 170.235 156.381 173.284 156.381 177.045C156.381 180.805 159.43 183.854 163.191 183.854C166.951 183.854 170 180.805 170 177.045Z" fill="white" fill-opacity="0.51"/>
<path d="M-46.3812 152.725C-46.3812 148.965 -49.4299 145.916 -53.1906 145.916C-56.9513 145.916 -60 148.965 -60 152.725C-60 156.486 -56.9513 159.535 -53.1906 159.535C-49.4299 159.535 -46.3812 156.486 -46.3812 152.725Z" fill="white" fill-opacity="0.51"/>
<path d="M-22.3388 152.725C-22.3388 148.965 -25.3875 145.916 -29.1483 145.916C-32.909 145.916 -35.9577 148.965 -35.9577 152.725C-35.9577 156.486 -32.909 159.535 -29.1483 159.535C-25.3875 159.535 -22.3388 156.486 -22.3388 152.725Z" fill="white" fill-opacity="0.51"/>
<path d="M1.70351 152.725C1.70351 148.965 -1.34517 145.916 -5.10591 145.916C-8.86665 145.916 -11.9153 148.965 -11.9153 152.725C-11.9153 156.486 -8.86665 159.535 -5.10591 159.535C-1.34517 159.535 1.70351 156.486 1.70351 152.725Z" fill="white" fill-opacity="0.51"/>
<path d="M25.7459 152.725C25.7459 148.965 22.6972 145.916 18.9364 145.916C15.1757 145.916 12.127 148.965 12.127 152.725C12.127 156.486 15.1757 159.535 18.9364 159.535C22.6972 159.535 25.7459 156.486 25.7459 152.725Z" fill="white" fill-opacity="0.51"/>
<path d="M49.7881 152.725C49.7881 148.965 46.7394 145.916 42.9787 145.916C39.218 145.916 36.1693 148.965 36.1693 152.725C36.1693 156.486 39.218 159.535 42.9787 159.535C46.7394 159.535 49.7881 156.486 49.7881 152.725Z" fill="white" fill-opacity="0.51"/>
<path d="M73.8305 152.725C73.8305 148.965 70.7818 145.916 67.021 145.916C63.2603 145.916 60.2116 148.965 60.2116 152.725C60.2116 156.486 63.2603 159.535 67.021 159.535C70.7818 159.535 73.8305 156.486 73.8305 152.725Z" fill="white" fill-opacity="0.51"/>
<path d="M97.8728 152.725C97.8728 148.965 94.8241 145.916 91.0634 145.916C87.3027 145.916 84.254 148.965 84.254 152.725C84.254 156.486 87.3027 159.535 91.0634 159.535C94.8241 159.535 97.8728 156.486 97.8728 152.725Z" fill="white" fill-opacity="0.51"/>
<path d="M121.915 152.725C121.915 148.965 118.866 145.916 115.106 145.916C111.345 145.916 108.296 148.965 108.296 152.725C108.296 156.486 111.345 159.535 115.106 159.535C118.866 159.535 121.915 156.486 121.915 152.725Z" fill="white" fill-opacity="0.51"/>
<path d="M145.957 152.725C145.957 148.965 142.909 145.916 139.148 145.916C135.387 145.916 132.339 148.965 132.339 152.725C132.339 156.486 135.387 159.535 139.148 159.535C142.909 159.535 145.957 156.486 145.957 152.725Z" fill="white" fill-opacity="0.51"/>
<path d="M170 152.725C170 148.965 166.951 145.916 163.19 145.916C159.43 145.916 156.381 148.965 156.381 152.725C156.381 156.486 159.43 159.535 163.19 159.535C166.951 159.535 170 156.486 170 152.725Z" fill="white" fill-opacity="0.51"/>
<path d="M-46.3812 128.406C-46.3812 124.645 -49.4298 121.596 -53.1906 121.596C-56.9513 121.596 -60 124.645 -60 128.406C-60 132.166 -56.9513 135.215 -53.1906 135.215C-49.4299 135.215 -46.3812 132.166 -46.3812 128.406Z" fill="white" fill-opacity="0.51"/>
<path d="M-22.3388 128.406C-22.3388 124.645 -25.3875 121.596 -29.1482 121.596C-32.909 121.596 -35.9577 124.645 -35.9577 128.406C-35.9577 132.166 -32.909 135.215 -29.1483 135.215C-25.3875 135.215 -22.3388 132.166 -22.3388 128.406Z" fill="white" fill-opacity="0.51"/>
<path d="M1.70351 128.406C1.70351 124.645 -1.34516 121.596 -5.10591 121.596C-8.86665 121.596 -11.9153 124.645 -11.9153 128.406C-11.9153 132.166 -8.86665 135.215 -5.10591 135.215C-1.34516 135.215 1.70351 132.166 1.70351 128.406Z" fill="white" fill-opacity="0.51"/>
<path d="M25.7459 128.406C25.7459 124.645 22.6972 121.596 18.9364 121.596C15.1757 121.596 12.127 124.645 12.127 128.406C12.127 132.166 15.1757 135.215 18.9364 135.215C22.6972 135.215 25.7459 132.166 25.7459 128.406Z" fill="white" fill-opacity="0.51"/>
<path d="M49.7881 128.406C49.7881 124.645 46.7394 121.596 42.9787 121.596C39.218 121.596 36.1693 124.645 36.1693 128.406C36.1693 132.166 39.218 135.215 42.9787 135.215C46.7394 135.215 49.7881 132.166 49.7881 128.406Z" fill="white" fill-opacity="0.51"/>
<path d="M73.8305 128.406C73.8305 124.645 70.7818 121.596 67.021 121.596C63.2603 121.596 60.2116 124.645 60.2116 128.406C60.2116 132.166 63.2603 135.215 67.021 135.215C70.7818 135.215 73.8305 132.166 73.8305 128.406Z" fill="white" fill-opacity="0.51"/>
<path d="M97.8728 128.406C97.8728 124.645 94.8241 121.596 91.0634 121.596C87.3027 121.596 84.254 124.645 84.254 128.406C84.254 132.167 87.3027 135.215 91.0634 135.215C94.8241 135.215 97.8728 132.167 97.8728 128.406Z" fill="white" fill-opacity="0.51"/>
<path d="M121.915 128.406C121.915 124.645 118.866 121.596 115.106 121.596C111.345 121.596 108.296 124.645 108.296 128.406C108.296 132.167 111.345 135.215 115.106 135.215C118.866 135.215 121.915 132.167 121.915 128.406Z" fill="white" fill-opacity="0.51"/>
<path d="M145.957 128.406C145.957 124.645 142.909 121.596 139.148 121.596C135.387 121.596 132.339 124.645 132.339 128.406C132.339 132.167 135.387 135.215 139.148 135.215C142.909 135.215 145.957 132.167 145.957 128.406Z" fill="white" fill-opacity="0.51"/>
<path d="M170 128.406C170 124.645 166.951 121.596 163.19 121.596C159.43 121.596 156.381 124.645 156.381 128.406C156.381 132.167 159.43 135.215 163.19 135.215C166.951 135.215 170 132.167 170 128.406Z" fill="white" fill-opacity="0.51"/>
<path d="M-46.3812 104.087C-46.3812 100.326 -49.4298 97.2772 -53.1906 97.2772C-56.9513 97.2772 -60 100.326 -60 104.087C-60 107.847 -56.9513 110.896 -53.1906 110.896C-49.4298 110.896 -46.3812 107.847 -46.3812 104.087Z" fill="white" fill-opacity="0.51"/>
<path d="M-22.3388 104.086C-22.3388 100.326 -25.3875 97.2768 -29.1482 97.2768C-32.909 97.2768 -35.9577 100.326 -35.9577 104.086C-35.9577 107.847 -32.909 110.896 -29.1482 110.896C-25.3875 110.896 -22.3388 107.847 -22.3388 104.086Z" fill="white" fill-opacity="0.51"/>
<path d="M1.70351 104.087C1.70351 100.326 -1.34516 97.2772 -5.1059 97.2772C-8.86665 97.2772 -11.9153 100.326 -11.9153 104.087C-11.9153 107.847 -8.86665 110.896 -5.1059 110.896C-1.34516 110.896 1.70351 107.847 1.70351 104.087Z" fill="white" fill-opacity="0.51"/>
<path d="M25.7459 104.087C25.7459 100.326 22.6972 97.2772 18.9364 97.2772C15.1757 97.2772 12.127 100.326 12.127 104.087C12.127 107.847 15.1757 110.896 18.9364 110.896C22.6972 110.896 25.7459 107.847 25.7459 104.087Z" fill="white" fill-opacity="0.51"/>
<path d="M49.7881 104.087C49.7881 100.326 46.7394 97.2772 42.9787 97.2772C39.218 97.2772 36.1693 100.326 36.1693 104.087C36.1693 107.847 39.218 110.896 42.9787 110.896C46.7394 110.896 49.7881 107.847 49.7881 104.087Z" fill="white" fill-opacity="0.51"/>
<path d="M73.8305 104.087C73.8305 100.326 70.7818 97.2772 67.021 97.2772C63.2603 97.2772 60.2116 100.326 60.2116 104.087C60.2116 107.847 63.2603 110.896 67.021 110.896C70.7818 110.896 73.8305 107.847 73.8305 104.087Z" fill="white" fill-opacity="0.51"/>
<path d="M97.8728 104.086C97.8728 100.326 94.8241 97.2768 91.0634 97.2768C87.3027 97.2768 84.254 100.326 84.254 104.086C84.254 107.847 87.3027 110.896 91.0634 110.896C94.8241 110.896 97.8728 107.847 97.8728 104.086Z" fill="white" fill-opacity="0.51"/>
<path d="M121.915 104.086C121.915 100.326 118.866 97.2769 115.106 97.2769C111.345 97.2769 108.296 100.326 108.296 104.086C108.296 107.847 111.345 110.896 115.106 110.896C118.866 110.896 121.915 107.847 121.915 104.086Z" fill="white" fill-opacity="0.51"/>
<path d="M145.957 104.087C145.957 100.326 142.909 97.2772 139.148 97.2772C135.387 97.2772 132.339 100.326 132.339 104.087C132.339 107.847 135.387 110.896 139.148 110.896C142.909 110.896 145.957 107.847 145.957 104.087Z" fill="white" fill-opacity="0.51"/>
<path d="M170 104.086C170 100.326 166.951 97.2769 163.19 97.2769C159.43 97.2769 156.381 100.326 156.381 104.086C156.381 107.847 159.43 110.896 163.19 110.896C166.951 110.896 170 107.847 170 104.086Z" fill="white" fill-opacity="0.51"/>
<path d="M-46.3811 79.7673C-46.3811 76.0066 -49.4298 72.9579 -53.1905 72.9579C-56.9513 72.9579 -59.9999 76.0066 -59.9999 79.7673C-59.9999 83.5281 -56.9513 86.5767 -53.1905 86.5767C-49.4298 86.5767 -46.3811 83.5281 -46.3811 79.7673Z" fill="white" fill-opacity="0.51"/>
<path d="M-22.3388 79.7673C-22.3388 76.0066 -25.3874 72.9579 -29.1482 72.9579C-32.9089 72.9579 -35.9576 76.0066 -35.9576 79.7673C-35.9576 83.5281 -32.9089 86.5767 -29.1482 86.5767C-25.3874 86.5767 -22.3388 83.5281 -22.3388 79.7673Z" fill="white" fill-opacity="0.51"/>
<path d="M1.70359 79.7673C1.70359 76.0066 -1.34508 72.9579 -5.10583 72.9579C-8.86657 72.9579 -11.9152 76.0066 -11.9152 79.7673C-11.9152 83.5281 -8.86657 86.5767 -5.10583 86.5767C-1.34508 86.5767 1.70359 83.5281 1.70359 79.7673Z" fill="white" fill-opacity="0.51"/>
<path d="M25.7459 79.7673C25.7459 76.0066 22.6973 72.9579 18.9365 72.9579C15.1758 72.9579 12.1271 76.0066 12.1271 79.7673C12.1271 83.5281 15.1758 86.5767 18.9365 86.5767C22.6973 86.5767 25.7459 83.5281 25.7459 79.7673Z" fill="white" fill-opacity="0.51"/>
<path d="M49.7883 79.7673C49.7883 76.0066 46.7396 72.9579 42.9789 72.9579C39.2181 72.9579 36.1695 76.0066 36.1695 79.7673C36.1695 83.5281 39.2181 86.5767 42.9789 86.5767C46.7396 86.5767 49.7883 83.5281 49.7883 79.7673Z" fill="white" fill-opacity="0.51"/>
<path d="M73.8306 79.7673C73.8306 76.0066 70.7819 72.9579 67.0212 72.9579C63.2605 72.9579 60.2118 76.0066 60.2118 79.7673C60.2118 83.5281 63.2605 86.5767 67.0212 86.5767C70.7819 86.5767 73.8306 83.5281 73.8306 79.7673Z" fill="white" fill-opacity="0.51"/>
<path d="M97.873 79.7673C97.873 76.0066 94.8243 72.9579 91.0636 72.9579C87.3028 72.9579 84.2541 76.0066 84.2541 79.7673C84.2541 83.5281 87.3028 86.5767 91.0636 86.5767C94.8243 86.5767 97.873 83.5281 97.873 79.7673Z" fill="white" fill-opacity="0.51"/>
<path d="M121.915 79.7673C121.915 76.0066 118.867 72.9579 115.106 72.9579C111.345 72.9579 108.296 76.0066 108.296 79.7673C108.296 83.5281 111.345 86.5767 115.106 86.5767C118.867 86.5767 121.915 83.5281 121.915 79.7673Z" fill="white" fill-opacity="0.51"/>
<path d="M145.958 79.7673C145.958 76.0066 142.909 72.9579 139.148 72.9579C135.388 72.9579 132.339 76.0066 132.339 79.7673C132.339 83.5281 135.388 86.5767 139.148 86.5767C142.909 86.5767 145.958 83.5281 145.958 79.7673Z" fill="white" fill-opacity="0.51"/>
<path d="M170 79.7673C170 76.0066 166.951 72.9579 163.191 72.9579C159.43 72.9579 156.381 76.0066 156.381 79.7673C156.381 83.5281 159.43 86.5768 163.191 86.5768C166.951 86.5768 170 83.5281 170 79.7673Z" fill="white" fill-opacity="0.51"/>
<path d="M-46.3812 55.4478C-46.3812 51.6871 -49.4298 48.6384 -53.1906 48.6384C-56.9513 48.6384 -60 51.6871 -60 55.4478C-60 59.2085 -56.9513 62.2572 -53.1906 62.2572C-49.4298 62.2572 -46.3812 59.2085 -46.3812 55.4478Z" fill="white" fill-opacity="0.51"/>
<path d="M-22.3388 55.4478C-22.3388 51.6871 -25.3875 48.6384 -29.1482 48.6384C-32.909 48.6384 -35.9577 51.6871 -35.9577 55.4478C-35.9577 59.2085 -32.909 62.2572 -29.1482 62.2572C-25.3875 62.2572 -22.3388 59.2085 -22.3388 55.4478Z" fill="white" fill-opacity="0.51"/>
<path d="M1.70352 55.4478C1.70352 51.6871 -1.34516 48.6384 -5.1059 48.6384C-8.86664 48.6384 -11.9153 51.6871 -11.9153 55.4478C-11.9153 59.2085 -8.86664 62.2572 -5.1059 62.2572C-1.34516 62.2572 1.70352 59.2086 1.70352 55.4478Z" fill="white" fill-opacity="0.51"/>
<path d="M25.7459 55.4478C25.7459 51.6871 22.6972 48.6384 18.9364 48.6384C15.1757 48.6384 12.127 51.6871 12.127 55.4478C12.127 59.2086 15.1757 62.2572 18.9364 62.2572C22.6972 62.2572 25.7459 59.2086 25.7459 55.4478Z" fill="white" fill-opacity="0.51"/>
<path d="M49.7881 55.4478C49.7881 51.6871 46.7394 48.6384 42.9787 48.6384C39.218 48.6384 36.1693 51.6871 36.1693 55.4478C36.1693 59.2086 39.218 62.2572 42.9787 62.2572C46.7394 62.2572 49.7881 59.2086 49.7881 55.4478Z" fill="white" fill-opacity="0.51"/>
<path d="M73.8305 55.4478C73.8305 51.6871 70.7818 48.6384 67.0211 48.6384C63.2603 48.6384 60.2116 51.6871 60.2116 55.4478C60.2116 59.2086 63.2603 62.2572 67.0211 62.2572C70.7818 62.2572 73.8305 59.2086 73.8305 55.4478Z" fill="white" fill-opacity="0.51"/>
<path d="M97.8728 55.4478C97.8728 51.6871 94.8241 48.6384 91.0634 48.6384C87.3027 48.6384 84.254 51.6871 84.254 55.4478C84.254 59.2086 87.3027 62.2572 91.0634 62.2572C94.8241 62.2572 97.8728 59.2086 97.8728 55.4478Z" fill="white" fill-opacity="0.51"/>
<path d="M121.915 55.4478C121.915 51.6871 118.866 48.6384 115.106 48.6384C111.345 48.6384 108.296 51.6871 108.296 55.4478C108.296 59.2086 111.345 62.2572 115.106 62.2572C118.866 62.2572 121.915 59.2086 121.915 55.4478Z" fill="white" fill-opacity="0.51"/>
<path d="M145.957 55.4478C145.957 51.6871 142.909 48.6384 139.148 48.6384C135.387 48.6384 132.339 51.6871 132.339 55.4478C132.339 59.2086 135.387 62.2572 139.148 62.2572C142.909 62.2572 145.957 59.2086 145.957 55.4478Z" fill="white" fill-opacity="0.51"/>
<path d="M170 55.4478C170 51.6871 166.951 48.6384 163.19 48.6384C159.43 48.6384 156.381 51.6871 156.381 55.4478C156.381 59.2086 159.43 62.2572 163.19 62.2572C166.951 62.2572 170 59.2086 170 55.4478Z" fill="white" fill-opacity="0.51"/>
<path d="M-46.3811 31.1285C-46.3811 27.3678 -49.4298 24.3191 -53.1905 24.3191C-56.9512 24.3191 -59.9999 27.3678 -59.9999 31.1285C-59.9999 34.8892 -56.9513 37.9379 -53.1905 37.9379C-49.4298 37.9379 -46.3811 34.8892 -46.3811 31.1285Z" fill="white" fill-opacity="0.51"/>
<path d="M-22.3387 31.1287C-22.3387 27.3679 -25.3874 24.3193 -29.1481 24.3193C-32.9089 24.3193 -35.9576 27.3679 -35.9576 31.1287C-35.9576 34.8894 -32.9089 37.9381 -29.1482 37.9381C-25.3874 37.9381 -22.3387 34.8894 -22.3387 31.1287Z" fill="white" fill-opacity="0.51"/>
<path d="M1.7036 31.1285C1.7036 27.3678 -1.34508 24.3191 -5.10582 24.3191C-8.86656 24.3191 -11.9152 27.3678 -11.9152 31.1285C-11.9152 34.8893 -8.86656 37.9379 -5.10582 37.9379C-1.34508 37.9379 1.7036 34.8893 1.7036 31.1285Z" fill="white" fill-opacity="0.51"/>
<path d="M25.7459 31.1285C25.7459 27.3678 22.6973 24.3191 18.9365 24.3191C15.1758 24.3191 12.1271 27.3678 12.1271 31.1285C12.1271 34.8893 15.1758 37.9379 18.9365 37.9379C22.6973 37.9379 25.7459 34.8893 25.7459 31.1285Z" fill="white" fill-opacity="0.51"/>
<path d="M49.7883 31.1287C49.7883 27.368 46.7396 24.3193 42.9789 24.3193C39.2181 24.3193 36.1695 27.368 36.1695 31.1287C36.1695 34.8894 39.2181 37.9381 42.9789 37.9381C46.7396 37.9381 49.7883 34.8894 49.7883 31.1287Z" fill="white" fill-opacity="0.51"/>
<path d="M73.8306 31.1285C73.8306 27.3678 70.7819 24.3191 67.0212 24.3191C63.2605 24.3191 60.2118 27.3678 60.2118 31.1285C60.2118 34.8893 63.2605 37.9379 67.0212 37.9379C70.7819 37.9379 73.8306 34.8893 73.8306 31.1285Z" fill="white" fill-opacity="0.51"/>
<path d="M97.873 31.1287C97.873 27.368 94.8243 24.3193 91.0636 24.3193C87.3028 24.3193 84.2541 27.368 84.2541 31.1287C84.2541 34.8894 87.3028 37.9381 91.0636 37.9381C94.8243 37.9381 97.873 34.8894 97.873 31.1287Z" fill="white" fill-opacity="0.51"/>
<path d="M121.915 31.1287C121.915 27.368 118.867 24.3193 115.106 24.3193C111.345 24.3193 108.296 27.368 108.296 31.1287C108.296 34.8894 111.345 37.9381 115.106 37.9381C118.867 37.9381 121.915 34.8894 121.915 31.1287Z" fill="white" fill-opacity="0.51"/>
<path d="M145.958 31.1285C145.958 27.3678 142.909 24.3191 139.148 24.3191C135.388 24.3191 132.339 27.3678 132.339 31.1285C132.339 34.8893 135.388 37.9379 139.148 37.9379C142.909 37.9379 145.958 34.8893 145.958 31.1285Z" fill="white" fill-opacity="0.51"/>
<path d="M170 31.1287C170 27.368 166.951 24.3193 163.191 24.3193C159.43 24.3193 156.381 27.368 156.381 31.1287C156.381 34.8894 159.43 37.9381 163.191 37.9381C166.951 37.9381 170 34.8895 170 31.1287Z" fill="white" fill-opacity="0.51"/>
<path d="M-46.3812 6.80938C-46.3812 3.04864 -49.4298 -1.91832e-05 -53.1906 -1.95119e-05C-56.9513 -1.98407e-05 -60 3.04864 -60 6.80938C-60 10.5701 -56.9513 13.6188 -53.1906 13.6188C-49.4298 13.6188 -46.3812 10.5701 -46.3812 6.80938Z" fill="white" fill-opacity="0.51"/>
<path d="M-22.3388 6.80939C-22.3388 3.04864 -25.3875 -1.70813e-05 -29.1482 -1.74101e-05C-32.909 -1.77389e-05 -35.9577 3.04864 -35.9577 6.80938C-35.9577 10.5701 -32.909 13.6188 -29.1482 13.6188C-25.3875 13.6188 -22.3388 10.5701 -22.3388 6.80939Z" fill="white" fill-opacity="0.51"/>
<path d="M1.70352 6.80939C1.70352 3.04865 -1.34515 -1.49795e-05 -5.1059 -1.53082e-05C-8.86664 -1.5637e-05 -11.9153 3.04864 -11.9153 6.80939C-11.9153 10.5701 -8.86664 13.6188 -5.1059 13.6188C-1.34515 13.6188 1.70352 10.5701 1.70352 6.80939Z" fill="white" fill-opacity="0.51"/>
<path d="M25.7459 6.80939C25.7459 3.04865 22.6972 -1.28776e-05 18.9364 -1.32064e-05C15.1757 -1.35352e-05 12.127 3.04865 12.127 6.80939C12.127 10.5701 15.1757 13.6188 18.9364 13.6188C22.6972 13.6188 25.7459 10.5701 25.7459 6.80939Z" fill="white" fill-opacity="0.51"/>
<path d="M49.7881 6.80939C49.7881 3.04865 46.7394 -1.07758e-05 42.9787 -1.11046e-05C39.218 -1.14333e-05 36.1693 3.04865 36.1693 6.80939C36.1693 10.5701 39.218 13.6188 42.9787 13.6188C46.7394 13.6188 49.7881 10.5701 49.7881 6.80939Z" fill="white" fill-opacity="0.51"/>
<path d="M73.8305 6.80939C73.8305 3.04865 70.7818 -8.67393e-06 67.0211 -9.00271e-06C63.2603 -9.33148e-06 60.2116 3.04865 60.2116 6.80939C60.2116 10.5701 63.2603 13.6188 67.0211 13.6188C70.7818 13.6188 73.8305 10.5701 73.8305 6.80939Z" fill="white" fill-opacity="0.51"/>
<path d="M97.8728 6.8094C97.8728 3.04865 94.8241 -6.57208e-06 91.0634 -6.90086e-06C87.3027 -7.22963e-06 84.254 3.04865 84.254 6.80939C84.254 10.5701 87.3027 13.6188 91.0634 13.6188C94.8241 13.6188 97.8728 10.5701 97.8728 6.8094Z" fill="white" fill-opacity="0.51"/>
<path d="M121.915 6.8094C121.915 3.04866 118.866 -4.47024e-06 115.106 -4.79901e-06C111.345 -5.12778e-06 108.296 3.04865 108.296 6.8094C108.296 10.5701 111.345 13.6188 115.106 13.6188C118.866 13.6188 121.915 10.5701 121.915 6.8094Z" fill="white" fill-opacity="0.51"/>
<path d="M145.957 6.8094C145.957 3.04866 142.909 -2.36839e-06 139.148 -2.69716e-06C135.387 -3.02594e-06 132.339 3.04866 132.339 6.8094C132.339 10.5701 135.387 13.6188 139.148 13.6188C142.909 13.6188 145.957 10.5701 145.957 6.8094Z" fill="white" fill-opacity="0.51"/>
<path d="M170 6.8094C170 3.04866 166.951 -2.66539e-07 163.19 -5.95313e-07C159.43 -9.24086e-07 156.381 3.04866 156.381 6.8094C156.381 10.5701 159.43 13.6188 163.19 13.6188C166.951 13.6188 170 10.5701 170 6.8094Z" fill="white" fill-opacity="0.51"/>
</svg>
