<svg width="181" height="205" viewBox="0 0 181 205" fill="none" xmlns="http://www.w3.org/2000/svg">
<path d="M37.8125 143.188H31.0312C30.132 143.188 29.2696 142.83 28.6337 142.194C27.9978 141.559 27.6406 140.696 27.6406 139.797C27.6406 138.898 27.9978 138.035 28.6337 137.399C29.2696 136.763 30.132 136.406 31.0312 136.406H37.8125C38.7118 136.406 39.5742 136.763 40.21 137.399C40.8459 138.035 41.2031 138.898 41.2031 139.797C41.2031 140.696 40.8459 141.559 40.21 142.194C39.5742 142.83 38.7118 143.188 37.8125 143.188Z" fill="#0E3075"/>
<path d="M102.234 143.188H51.375C50.4758 143.188 49.6133 142.83 48.9775 142.194C48.3416 141.559 47.9844 140.696 47.9844 139.797C47.9844 138.898 48.3416 138.035 48.9775 137.399C49.6133 136.763 50.4758 136.406 51.375 136.406H102.234C103.134 136.406 103.996 136.763 104.632 137.399C105.268 138.035 105.625 138.898 105.625 139.797C105.625 140.696 105.268 141.559 104.632 142.194C103.996 142.83 103.134 143.188 102.234 143.188Z" fill="#0E3075"/>
<path d="M102.234 156.75H31.0312C30.132 156.75 29.2696 156.393 28.6337 155.757C27.9978 155.121 27.6406 154.259 27.6406 153.359C27.6406 152.46 27.9978 151.598 28.6337 150.962C29.2696 150.326 30.132 149.969 31.0312 149.969H102.234C103.134 149.969 103.996 150.326 104.632 150.962C105.268 151.598 105.625 152.46 105.625 153.359C105.625 154.259 105.268 155.121 104.632 155.757C103.996 156.393 103.134 156.75 102.234 156.75Z" fill="#0E3075"/>
<path d="M102.234 170.312H31.0312C30.132 170.312 29.2696 169.955 28.6337 169.319C27.9978 168.684 27.6406 167.821 27.6406 166.922C27.6406 166.023 27.9978 165.16 28.6337 164.524C29.2696 163.888 30.132 163.531 31.0312 163.531H102.234C103.134 163.531 103.996 163.888 104.632 164.524C105.268 165.16 105.625 166.023 105.625 166.922C105.625 167.821 105.268 168.684 104.632 169.319C103.996 169.955 103.134 170.312 102.234 170.312Z" fill="#0E3075"/>
<path d="M92.0625 183.875H31.0312C30.132 183.875 29.2696 183.518 28.6337 182.882C27.9978 182.246 27.6406 181.384 27.6406 180.484C27.6406 179.585 27.9978 178.723 28.6337 178.087C29.2696 177.451 30.132 177.094 31.0312 177.094H92.0625C92.9617 177.094 93.8242 177.451 94.46 178.087C95.0959 178.723 95.4531 179.585 95.4531 180.484C95.4531 181.384 95.0959 182.246 94.46 182.882C93.8242 183.518 92.9617 183.875 92.0625 183.875Z" fill="#0E3075"/>
<path d="M34.4219 102.5H31.0312C30.132 102.5 29.2696 102.143 28.6337 101.507C27.9978 100.871 27.6406 100.009 27.6406 99.1094C27.6406 98.2101 27.9978 97.3477 28.6337 96.7118C29.2696 96.076 30.132 95.7188 31.0312 95.7188H34.4219C35.3211 95.7188 36.1835 96.076 36.8194 96.7118C37.4553 97.3477 37.8125 98.2101 37.8125 99.1094C37.8125 100.009 37.4553 100.871 36.8194 101.507C36.1835 102.143 35.3211 102.5 34.4219 102.5Z" fill="#0E3075"/>
<path d="M119.188 102.5H47.9844C47.0851 102.5 46.2227 102.143 45.5868 101.507C44.951 100.871 44.5938 100.009 44.5938 99.1094C44.5938 98.2101 44.951 97.3477 45.5868 96.7118C46.2227 96.076 47.0851 95.7188 47.9844 95.7188H119.188C120.087 95.7188 120.949 96.076 121.585 96.7118C122.221 97.3477 122.578 98.2101 122.578 99.1094C122.578 100.009 122.221 100.871 121.585 101.507C120.949 102.143 120.087 102.5 119.188 102.5Z" fill="#0E3075"/>
<path d="M47.9844 116.062H31.0312C30.132 116.062 29.2696 115.705 28.6337 115.069C27.9978 114.434 27.6406 113.571 27.6406 112.672C27.6406 111.773 27.9978 110.91 28.6337 110.274C29.2696 109.638 30.132 109.281 31.0312 109.281H47.9844C48.8836 109.281 49.746 109.638 50.3819 110.274C51.0178 110.91 51.375 111.773 51.375 112.672C51.375 113.571 51.0178 114.434 50.3819 115.069C49.746 115.705 48.8836 116.062 47.9844 116.062Z" fill="#0E3075"/>
<path d="M119.188 116.062H61.5469C60.6476 116.062 59.7852 115.705 59.1493 115.069C58.5135 114.434 58.1562 113.571 58.1562 112.672C58.1562 111.773 58.5135 110.91 59.1493 110.274C59.7852 109.638 60.6476 109.281 61.5469 109.281H119.188C120.087 109.281 120.949 109.638 121.585 110.274C122.221 110.91 122.578 111.773 122.578 112.672C122.578 113.571 122.221 114.434 121.585 115.069C120.949 115.705 120.087 116.062 119.188 116.062Z" fill="#0E3075"/>
<path d="M148.71 28.8997L121.585 1.7747C120.949 1.13879 120.087 0.781442 119.188 0.78125H3.90625C3.007 0.78125 2.14458 1.13848 1.50872 1.77434C0.872851 2.41021 0.515625 3.27263 0.515625 4.17188V200.828C0.515625 201.727 0.872851 202.59 1.50872 203.226C2.14458 203.862 3.007 204.219 3.90625 204.219H125.969C126.868 204.219 127.73 203.862 128.366 203.226C129.002 202.59 129.359 201.727 129.359 200.828C129.359 199.929 129.002 199.066 128.366 198.431C127.73 197.795 126.868 197.438 125.969 197.438H7.29688V7.5625H112.406V31.2969C112.406 32.1961 112.763 33.0585 113.399 33.6944C114.035 34.3303 114.898 34.6875 115.797 34.6875H142.922V112.672C142.922 113.571 143.279 114.434 143.915 115.069C144.551 115.705 145.413 116.062 146.312 116.062C147.212 116.062 148.074 115.705 148.71 115.069C149.346 114.434 149.703 113.571 149.703 112.672V31.2969C149.703 30.3977 149.346 29.5354 148.71 28.8997ZM119.188 8.96622L138.128 27.9062H119.188V8.96622Z" fill="#0E3075"/>
<path d="M54.7656 21.125C52.0679 21.125 49.4806 22.1967 47.573 24.1043C45.6654 26.0119 44.5938 28.5991 44.5938 31.2969V71.9844C44.5938 74.6821 45.6654 77.2694 47.573 79.177C49.4806 81.0846 52.0679 82.1562 54.7656 82.1562H95.4531C98.1509 82.1562 100.738 81.0846 102.646 79.177C104.553 77.2694 105.625 74.6821 105.625 71.9844V31.2969C105.625 28.5991 104.553 26.0119 102.646 24.1043C100.738 22.1967 98.1509 21.125 95.4531 21.125H54.7656ZM78.5 27.9062V46.1546L76.625 45.2154C76.1544 44.9802 75.6355 44.8578 75.1094 44.8578C74.5833 44.8578 74.0644 44.9802 73.5938 45.2154L71.7188 46.1546V27.9062H78.5ZM98.8438 31.2969V71.9844C98.8438 72.8836 98.4865 73.746 97.8507 74.3819C97.2148 75.0178 96.3524 75.375 95.4531 75.375H54.7656C53.8664 75.375 53.004 75.0178 52.3681 74.3819C51.7322 73.746 51.375 72.8836 51.375 71.9844V31.2969C51.375 30.3976 51.7322 29.5352 52.3681 28.8993C53.004 28.2635 53.8664 27.9062 54.7656 27.9062H64.9375V51.6406C64.9372 52.2186 65.0847 52.7871 65.366 53.2921C65.6473 53.7971 66.053 54.2218 66.5445 54.5258C67.0361 54.8299 67.5973 55.0032 68.1747 55.0294C68.7521 55.0555 69.3267 54.9336 69.8437 54.6752L75.1094 52.0407L80.375 54.6752C80.8921 54.9336 81.4666 55.0555 82.044 55.0294C82.6215 55.0032 83.1826 54.8299 83.6742 54.5258C84.1658 54.2218 84.5715 53.7971 84.8528 53.2921C85.134 52.7871 85.2815 52.2186 85.2812 51.6406V27.9062H95.4531C96.3524 27.9062 97.2148 28.2635 97.8507 28.8993C98.4865 29.5352 98.8438 30.3976 98.8438 31.2969Z" fill="#0E3075"/>
<path d="M105.625 129.625H31.0312C30.132 129.625 29.2696 129.268 28.6337 128.632C27.9978 127.996 27.6406 127.134 27.6406 126.234C27.6406 125.335 27.9978 124.473 28.6337 123.837C29.2696 123.201 30.132 122.844 31.0312 122.844H105.625C106.524 122.844 107.387 123.201 108.023 123.837C108.658 124.473 109.016 125.335 109.016 126.234C109.016 127.134 108.658 127.996 108.023 128.632C107.387 129.268 106.524 129.625 105.625 129.625Z" fill="#0E3075"/>
<path d="M146.313 204.219C145.643 204.219 144.988 204.021 144.431 203.649L132.035 195.403C125.988 191.382 121.032 185.927 117.607 179.524C114.182 173.122 112.395 165.971 112.406 158.71V139.797C112.406 139.141 112.596 138.499 112.954 137.949C113.311 137.399 113.821 136.964 114.42 136.698L144.936 123.135C145.369 122.943 145.838 122.843 146.313 122.843C146.787 122.843 147.256 122.943 147.689 123.135L178.205 136.698C178.804 136.964 179.314 137.399 179.671 137.949C180.029 138.499 180.219 139.141 180.219 139.797V158.71C180.23 165.971 178.443 173.122 175.018 179.524C171.593 185.927 166.637 191.382 160.59 195.403L148.194 203.666C147.635 204.032 146.981 204.224 146.313 204.219ZM119.188 142.001V158.71C119.181 164.851 120.695 170.899 123.594 176.314C126.493 181.728 130.687 186.341 135.802 189.741L146.313 196.759L156.823 189.747C161.939 186.347 166.134 181.733 169.033 176.317C171.932 170.902 173.445 164.853 173.438 158.71V142.001L146.313 129.944L119.188 142.001Z" fill="#0E3075"/>
<path d="M139.531 177.094C138.632 177.094 137.77 176.736 137.134 176.1L126.962 165.929C126.345 165.289 126.003 164.433 126.011 163.544C126.018 162.655 126.375 161.804 127.003 161.175C127.632 160.547 128.483 160.19 129.372 160.183C130.261 160.175 131.117 160.517 131.757 161.134L139.531 168.909L160.868 147.572C161.508 146.954 162.364 146.612 163.253 146.62C164.142 146.628 164.993 146.984 165.621 147.613C166.25 148.242 166.607 149.092 166.614 149.981C166.622 150.87 166.28 151.727 165.663 152.366L141.928 176.1C141.293 176.736 140.43 177.094 139.531 177.094Z" fill="#0E3075"/>
</svg>
