<svg width="230" height="184" viewBox="0 0 230 184" fill="none" xmlns="http://www.w3.org/2000/svg">
<path d="M13.6189 177.045C13.6189 173.284 10.5702 170.235 6.80948 170.235C3.04874 170.235 7.7218e-05 173.284 7.68892e-05 177.045C7.65605e-05 180.805 3.04874 183.854 6.80948 183.854C10.5702 183.854 13.6189 180.805 13.6189 177.045Z" fill="#7887A5" fill-opacity="0.13"/>
<path d="M37.6612 177.045C37.6612 173.284 34.6126 170.235 30.8518 170.235C27.0911 170.235 24.0424 173.284 24.0424 177.045C24.0424 180.805 27.0911 183.854 30.8518 183.854C34.6126 183.854 37.6612 180.805 37.6612 177.045Z" fill="#7887A5" fill-opacity="0.13"/>
<path d="M61.7036 177.045C61.7036 173.284 58.6549 170.235 54.8942 170.235C51.1334 170.235 48.0848 173.284 48.0848 177.045C48.0848 180.805 51.1334 183.854 54.8942 183.854C58.6549 183.854 61.7036 180.805 61.7036 177.045Z" fill="#7887A5" fill-opacity="0.13"/>
<path d="M85.7459 177.045C85.7459 173.284 82.6973 170.235 78.9365 170.235C75.1758 170.235 72.1271 173.284 72.1271 177.045C72.1271 180.805 75.1758 183.854 78.9365 183.854C82.6973 183.854 85.7459 180.805 85.7459 177.045Z" fill="#7887A5" fill-opacity="0.13"/>
<path d="M109.788 177.045C109.788 173.284 106.74 170.235 102.979 170.235C99.2181 170.235 96.1694 173.284 96.1694 177.045C96.1694 180.805 99.2181 183.854 102.979 183.854C106.74 183.854 109.788 180.805 109.788 177.045Z" fill="#7887A5" fill-opacity="0.13"/>
<path d="M133.831 177.045C133.831 173.284 130.782 170.235 127.021 170.235C123.26 170.235 120.212 173.284 120.212 177.045C120.212 180.805 123.26 183.854 127.021 183.854C130.782 183.854 133.831 180.805 133.831 177.045Z" fill="#7887A5" fill-opacity="0.13"/>
<path d="M157.873 177.045C157.873 173.284 154.824 170.235 151.064 170.235C147.303 170.235 144.254 173.284 144.254 177.045C144.254 180.805 147.303 183.854 151.064 183.854C154.824 183.854 157.873 180.805 157.873 177.045Z" fill="#7887A5" fill-opacity="0.13"/>
<path d="M181.915 177.045C181.915 173.284 178.867 170.235 175.106 170.235C171.345 170.235 168.296 173.284 168.296 177.045C168.296 180.805 171.345 183.854 175.106 183.854C178.867 183.854 181.915 180.805 181.915 177.045Z" fill="#7887A5" fill-opacity="0.13"/>
<path d="M205.958 177.045C205.958 173.284 202.909 170.235 199.148 170.235C195.387 170.235 192.339 173.284 192.339 177.045C192.339 180.805 195.387 183.854 199.148 183.854C202.909 183.854 205.958 180.805 205.958 177.045Z" fill="#7887A5" fill-opacity="0.13"/>
<path d="M230 177.045C230 173.284 226.951 170.235 223.191 170.235C219.43 170.235 216.381 173.284 216.381 177.045C216.381 180.805 219.43 183.854 223.191 183.854C226.951 183.854 230 180.805 230 177.045Z" fill="#7887A5" fill-opacity="0.13"/>
<path d="M13.6188 152.725C13.6188 148.965 10.5701 145.916 6.80941 145.916C3.04866 145.916 -1.22087e-05 148.965 -1.25374e-05 152.725C-1.28662e-05 156.486 3.04866 159.535 6.8094 159.535C10.5701 159.535 13.6188 156.486 13.6188 152.725Z" fill="#7887A5" fill-opacity="0.13"/>
<path d="M37.6612 152.725C37.6612 148.965 34.6125 145.916 30.8517 145.916C27.091 145.916 24.0423 148.965 24.0423 152.725C24.0423 156.486 27.091 159.535 30.8517 159.535C34.6125 159.535 37.6612 156.486 37.6612 152.725Z" fill="#7887A5" fill-opacity="0.13"/>
<path d="M61.7035 152.725C61.7035 148.965 58.6548 145.916 54.8941 145.916C51.1333 145.916 48.0847 148.965 48.0847 152.725C48.0847 156.486 51.1333 159.535 54.8941 159.535C58.6548 159.535 61.7035 156.486 61.7035 152.725Z" fill="#7887A5" fill-opacity="0.13"/>
<path d="M85.7459 152.725C85.7459 148.965 82.6972 145.916 78.9364 145.916C75.1757 145.916 72.127 148.965 72.127 152.725C72.127 156.486 75.1757 159.535 78.9364 159.535C82.6972 159.535 85.7459 156.486 85.7459 152.725Z" fill="#7887A5" fill-opacity="0.13"/>
<path d="M109.788 152.725C109.788 148.965 106.739 145.916 102.979 145.916C99.218 145.916 96.1693 148.965 96.1693 152.725C96.1693 156.486 99.218 159.535 102.979 159.535C106.739 159.535 109.788 156.486 109.788 152.725Z" fill="#7887A5" fill-opacity="0.13"/>
<path d="M133.83 152.725C133.83 148.965 130.782 145.916 127.021 145.916C123.26 145.916 120.212 148.965 120.212 152.725C120.212 156.486 123.26 159.535 127.021 159.535C130.782 159.535 133.83 156.486 133.83 152.725Z" fill="#7887A5" fill-opacity="0.13"/>
<path d="M157.873 152.725C157.873 148.965 154.824 145.916 151.063 145.916C147.303 145.916 144.254 148.965 144.254 152.725C144.254 156.486 147.303 159.535 151.063 159.535C154.824 159.535 157.873 156.486 157.873 152.725Z" fill="#7887A5" fill-opacity="0.13"/>
<path d="M181.915 152.725C181.915 148.965 178.866 145.916 175.106 145.916C171.345 145.916 168.296 148.965 168.296 152.725C168.296 156.486 171.345 159.535 175.106 159.535C178.866 159.535 181.915 156.486 181.915 152.725Z" fill="#7887A5" fill-opacity="0.13"/>
<path d="M205.957 152.725C205.957 148.965 202.909 145.916 199.148 145.916C195.387 145.916 192.339 148.965 192.339 152.725C192.339 156.486 195.387 159.535 199.148 159.535C202.909 159.535 205.957 156.486 205.957 152.725Z" fill="#7887A5" fill-opacity="0.13"/>
<path d="M230 152.725C230 148.965 226.951 145.916 223.19 145.916C219.43 145.916 216.381 148.965 216.381 152.725C216.381 156.486 219.43 159.535 223.19 159.535C226.951 159.535 230 156.486 230 152.725Z" fill="#7887A5" fill-opacity="0.13"/>
<path d="M13.6188 128.406C13.6188 124.645 10.5702 121.596 6.80941 121.596C3.04867 121.596 -1.00826e-05 124.645 -1.04114e-05 128.406C-1.07401e-05 132.166 3.04866 135.215 6.80941 135.215C10.5701 135.215 13.6188 132.166 13.6188 128.406Z" fill="#7887A5" fill-opacity="0.13"/>
<path d="M37.6612 128.406C37.6612 124.645 34.6125 121.596 30.8518 121.596C27.091 121.596 24.0423 124.645 24.0423 128.406C24.0423 132.166 27.091 135.215 30.8517 135.215C34.6125 135.215 37.6612 132.166 37.6612 128.406Z" fill="#7887A5" fill-opacity="0.13"/>
<path d="M61.7035 128.406C61.7035 124.645 58.6548 121.596 54.8941 121.596C51.1334 121.596 48.0847 124.645 48.0847 128.406C48.0847 132.166 51.1334 135.215 54.8941 135.215C58.6548 135.215 61.7035 132.166 61.7035 128.406Z" fill="#7887A5" fill-opacity="0.13"/>
<path d="M85.7459 128.406C85.7459 124.645 82.6972 121.596 78.9364 121.596C75.1757 121.596 72.127 124.645 72.127 128.406C72.127 132.166 75.1757 135.215 78.9364 135.215C82.6972 135.215 85.7459 132.166 85.7459 128.406Z" fill="#7887A5" fill-opacity="0.13"/>
<path d="M109.788 128.406C109.788 124.645 106.739 121.596 102.979 121.596C99.218 121.596 96.1693 124.645 96.1693 128.406C96.1693 132.166 99.218 135.215 102.979 135.215C106.739 135.215 109.788 132.166 109.788 128.406Z" fill="#7887A5" fill-opacity="0.13"/>
<path d="M133.83 128.406C133.83 124.645 130.782 121.596 127.021 121.596C123.26 121.596 120.212 124.645 120.212 128.406C120.212 132.166 123.26 135.215 127.021 135.215C130.782 135.215 133.83 132.166 133.83 128.406Z" fill="#7887A5" fill-opacity="0.13"/>
<path d="M157.873 128.406C157.873 124.645 154.824 121.596 151.063 121.596C147.303 121.596 144.254 124.645 144.254 128.406C144.254 132.167 147.303 135.215 151.063 135.215C154.824 135.215 157.873 132.167 157.873 128.406Z" fill="#7887A5" fill-opacity="0.13"/>
<path d="M181.915 128.406C181.915 124.645 178.866 121.596 175.106 121.596C171.345 121.596 168.296 124.645 168.296 128.406C168.296 132.167 171.345 135.215 175.106 135.215C178.866 135.215 181.915 132.167 181.915 128.406Z" fill="#7887A5" fill-opacity="0.13"/>
<path d="M205.957 128.406C205.957 124.645 202.909 121.596 199.148 121.596C195.387 121.596 192.339 124.645 192.339 128.406C192.339 132.167 195.387 135.215 199.148 135.215C202.909 135.215 205.957 132.167 205.957 128.406Z" fill="#7887A5" fill-opacity="0.13"/>
<path d="M230 128.406C230 124.645 226.951 121.596 223.19 121.596C219.43 121.596 216.381 124.645 216.381 128.406C216.381 132.167 219.43 135.215 223.19 135.215C226.951 135.215 230 132.167 230 128.406Z" fill="#7887A5" fill-opacity="0.13"/>
<path d="M13.6188 104.087C13.6188 100.326 10.5702 97.2772 6.80941 97.2772C3.04867 97.2772 -7.95653e-06 100.326 -8.28531e-06 104.087C-8.61408e-06 107.847 3.04867 110.896 6.80941 110.896C10.5702 110.896 13.6188 107.847 13.6188 104.087Z" fill="#7887A5" fill-opacity="0.13"/>
<path d="M37.6612 104.086C37.6612 100.326 34.6125 97.2768 30.8518 97.2768C27.091 97.2768 24.0423 100.326 24.0423 104.086C24.0423 107.847 27.091 110.896 30.8518 110.896C34.6125 110.896 37.6612 107.847 37.6612 104.086Z" fill="#7887A5" fill-opacity="0.13"/>
<path d="M61.7035 104.087C61.7035 100.326 58.6548 97.2772 54.8941 97.2772C51.1334 97.2772 48.0847 100.326 48.0847 104.087C48.0847 107.847 51.1334 110.896 54.8941 110.896C58.6548 110.896 61.7035 107.847 61.7035 104.087Z" fill="#7887A5" fill-opacity="0.13"/>
<path d="M85.7459 104.087C85.7459 100.326 82.6972 97.2772 78.9364 97.2772C75.1757 97.2772 72.127 100.326 72.127 104.087C72.127 107.847 75.1757 110.896 78.9364 110.896C82.6972 110.896 85.7459 107.847 85.7459 104.087Z" fill="#7887A5" fill-opacity="0.13"/>
<path d="M109.788 104.087C109.788 100.326 106.739 97.2772 102.979 97.2772C99.218 97.2772 96.1693 100.326 96.1693 104.087C96.1693 107.847 99.218 110.896 102.979 110.896C106.739 110.896 109.788 107.847 109.788 104.087Z" fill="#7887A5" fill-opacity="0.13"/>
<path d="M133.83 104.087C133.83 100.326 130.782 97.2772 127.021 97.2772C123.26 97.2772 120.212 100.326 120.212 104.087C120.212 107.847 123.26 110.896 127.021 110.896C130.782 110.896 133.83 107.847 133.83 104.087Z" fill="#7887A5" fill-opacity="0.13"/>
<path d="M157.873 104.086C157.873 100.326 154.824 97.2768 151.063 97.2768C147.303 97.2768 144.254 100.326 144.254 104.086C144.254 107.847 147.303 110.896 151.063 110.896C154.824 110.896 157.873 107.847 157.873 104.086Z" fill="#7887A5" fill-opacity="0.13"/>
<path d="M181.915 104.086C181.915 100.326 178.866 97.2769 175.106 97.2769C171.345 97.2769 168.296 100.326 168.296 104.086C168.296 107.847 171.345 110.896 175.106 110.896C178.866 110.896 181.915 107.847 181.915 104.086Z" fill="#7887A5" fill-opacity="0.13"/>
<path d="M205.957 104.087C205.957 100.326 202.909 97.2772 199.148 97.2772C195.387 97.2772 192.339 100.326 192.339 104.087C192.339 107.847 195.387 110.896 199.148 110.896C202.909 110.896 205.957 107.847 205.957 104.087Z" fill="#7887A5" fill-opacity="0.13"/>
<path d="M230 104.086C230 100.326 226.951 97.2769 223.19 97.2769C219.43 97.2769 216.381 100.326 216.381 104.086C216.381 107.847 219.43 110.896 223.19 110.896C226.951 110.896 230 107.847 230 104.086Z" fill="#7887A5" fill-opacity="0.13"/>
<path d="M13.6189 79.7673C13.6189 76.0066 10.5702 72.9579 6.80949 72.9579C3.04875 72.9579 8.57223e-05 76.0066 8.53935e-05 79.7673C8.50647e-05 83.5281 3.04875 86.5767 6.80949 86.5767C10.5702 86.5767 13.6189 83.5281 13.6189 79.7673Z" fill="#7887A5" fill-opacity="0.13"/>
<path d="M37.6612 79.7673C37.6612 76.0066 34.6126 72.9579 30.8518 72.9579C27.0911 72.9579 24.0424 76.0066 24.0424 79.7673C24.0424 83.5281 27.0911 86.5767 30.8518 86.5767C34.6126 86.5767 37.6612 83.5281 37.6612 79.7673Z" fill="#7887A5" fill-opacity="0.13"/>
<path d="M61.7036 79.7673C61.7036 76.0066 58.6549 72.9579 54.8942 72.9579C51.1334 72.9579 48.0848 76.0066 48.0848 79.7673C48.0848 83.5281 51.1334 86.5767 54.8942 86.5767C58.6549 86.5767 61.7036 83.5281 61.7036 79.7673Z" fill="#7887A5" fill-opacity="0.13"/>
<path d="M85.7459 79.7673C85.7459 76.0066 82.6973 72.9579 78.9365 72.9579C75.1758 72.9579 72.1271 76.0066 72.1271 79.7673C72.1271 83.5281 75.1758 86.5767 78.9365 86.5767C82.6973 86.5767 85.7459 83.5281 85.7459 79.7673Z" fill="#7887A5" fill-opacity="0.13"/>
<path d="M109.788 79.7673C109.788 76.0066 106.74 72.9579 102.979 72.9579C99.2181 72.9579 96.1695 76.0066 96.1695 79.7673C96.1695 83.5281 99.2181 86.5767 102.979 86.5767C106.74 86.5767 109.788 83.5281 109.788 79.7673Z" fill="#7887A5" fill-opacity="0.13"/>
<path d="M133.831 79.7673C133.831 76.0066 130.782 72.9579 127.021 72.9579C123.26 72.9579 120.212 76.0066 120.212 79.7673C120.212 83.5281 123.26 86.5767 127.021 86.5767C130.782 86.5767 133.831 83.5281 133.831 79.7673Z" fill="#7887A5" fill-opacity="0.13"/>
<path d="M157.873 79.7673C157.873 76.0066 154.824 72.9579 151.064 72.9579C147.303 72.9579 144.254 76.0066 144.254 79.7673C144.254 83.5281 147.303 86.5767 151.064 86.5767C154.824 86.5767 157.873 83.5281 157.873 79.7673Z" fill="#7887A5" fill-opacity="0.13"/>
<path d="M181.915 79.7673C181.915 76.0066 178.867 72.9579 175.106 72.9579C171.345 72.9579 168.296 76.0066 168.296 79.7673C168.296 83.5281 171.345 86.5767 175.106 86.5767C178.867 86.5767 181.915 83.5281 181.915 79.7673Z" fill="#7887A5" fill-opacity="0.13"/>
<path d="M205.958 79.7673C205.958 76.0066 202.909 72.9579 199.148 72.9579C195.388 72.9579 192.339 76.0066 192.339 79.7673C192.339 83.5281 195.388 86.5767 199.148 86.5767C202.909 86.5767 205.958 83.5281 205.958 79.7673Z" fill="#7887A5" fill-opacity="0.13"/>
<path d="M230 79.7673C230 76.0066 226.951 72.9579 223.191 72.9579C219.43 72.9579 216.381 76.0066 216.381 79.7673C216.381 83.5281 219.43 86.5768 223.191 86.5768C226.951 86.5768 230 83.5281 230 79.7673Z" fill="#7887A5" fill-opacity="0.13"/>
<path d="M13.6188 55.4478C13.6188 51.6871 10.5702 48.6384 6.80941 48.6384C3.04867 48.6384 -3.70439e-06 51.6871 -4.03316e-06 55.4478C-4.36194e-06 59.2085 3.04867 62.2572 6.80941 62.2572C10.5702 62.2572 13.6188 59.2085 13.6188 55.4478Z" fill="#7887A5" fill-opacity="0.13"/>
<path d="M37.6612 55.4478C37.6612 51.6871 34.6125 48.6384 30.8518 48.6384C27.091 48.6384 24.0423 51.6871 24.0423 55.4478C24.0423 59.2085 27.091 62.2572 30.8518 62.2572C34.6125 62.2572 37.6612 59.2085 37.6612 55.4478Z" fill="#7887A5" fill-opacity="0.13"/>
<path d="M61.7035 55.4478C61.7035 51.6871 58.6548 48.6384 54.8941 48.6384C51.1334 48.6384 48.0847 51.6871 48.0847 55.4478C48.0847 59.2085 51.1334 62.2572 54.8941 62.2572C58.6548 62.2572 61.7035 59.2086 61.7035 55.4478Z" fill="#7887A5" fill-opacity="0.13"/>
<path d="M85.7459 55.4478C85.7459 51.6871 82.6972 48.6384 78.9364 48.6384C75.1757 48.6384 72.127 51.6871 72.127 55.4478C72.127 59.2086 75.1757 62.2572 78.9364 62.2572C82.6972 62.2572 85.7459 59.2086 85.7459 55.4478Z" fill="#7887A5" fill-opacity="0.13"/>
<path d="M109.788 55.4478C109.788 51.6871 106.739 48.6384 102.979 48.6384C99.218 48.6384 96.1693 51.6871 96.1693 55.4478C96.1693 59.2086 99.218 62.2572 102.979 62.2572C106.739 62.2572 109.788 59.2086 109.788 55.4478Z" fill="#7887A5" fill-opacity="0.13"/>
<path d="M133.83 55.4478C133.83 51.6871 130.782 48.6384 127.021 48.6384C123.26 48.6384 120.212 51.6871 120.212 55.4478C120.212 59.2086 123.26 62.2572 127.021 62.2572C130.782 62.2572 133.83 59.2086 133.83 55.4478Z" fill="#7887A5" fill-opacity="0.13"/>
<path d="M157.873 55.4478C157.873 51.6871 154.824 48.6384 151.063 48.6384C147.303 48.6384 144.254 51.6871 144.254 55.4478C144.254 59.2086 147.303 62.2572 151.063 62.2572C154.824 62.2572 157.873 59.2086 157.873 55.4478Z" fill="#7887A5" fill-opacity="0.13"/>
<path d="M181.915 55.4478C181.915 51.6871 178.866 48.6384 175.106 48.6384C171.345 48.6384 168.296 51.6871 168.296 55.4478C168.296 59.2086 171.345 62.2572 175.106 62.2572C178.866 62.2572 181.915 59.2086 181.915 55.4478Z" fill="#7887A5" fill-opacity="0.13"/>
<path d="M205.957 55.4478C205.957 51.6871 202.909 48.6384 199.148 48.6384C195.387 48.6384 192.339 51.6871 192.339 55.4478C192.339 59.2086 195.387 62.2572 199.148 62.2572C202.909 62.2572 205.957 59.2086 205.957 55.4478Z" fill="#7887A5" fill-opacity="0.13"/>
<path d="M230 55.4478C230 51.6871 226.951 48.6384 223.19 48.6384C219.43 48.6384 216.381 51.6871 216.381 55.4478C216.381 59.2086 219.43 62.2572 223.19 62.2572C226.951 62.2572 230 59.2086 230 55.4478Z" fill="#7887A5" fill-opacity="0.13"/>
<path d="M13.6189 31.1285C13.6189 27.3678 10.5702 24.3191 6.80949 24.3191C3.04875 24.3191 8.99744e-05 27.3678 8.96456e-05 31.1285C8.93169e-05 34.8892 3.04875 37.9379 6.80949 37.9379C10.5702 37.9379 13.6189 34.8892 13.6189 31.1285Z" fill="#7887A5" fill-opacity="0.13"/>
<path d="M37.6613 31.1287C37.6613 27.3679 34.6126 24.3193 30.8519 24.3193C27.0911 24.3193 24.0424 27.3679 24.0424 31.1287C24.0424 34.8894 27.0911 37.9381 30.8518 37.9381C34.6126 37.9381 37.6613 34.8894 37.6613 31.1287Z" fill="#7887A5" fill-opacity="0.13"/>
<path d="M61.7036 31.1285C61.7036 27.3678 58.6549 24.3191 54.8942 24.3191C51.1334 24.3191 48.0848 27.3678 48.0848 31.1285C48.0848 34.8893 51.1334 37.9379 54.8942 37.9379C58.6549 37.9379 61.7036 34.8893 61.7036 31.1285Z" fill="#7887A5" fill-opacity="0.13"/>
<path d="M85.7459 31.1285C85.7459 27.3678 82.6973 24.3191 78.9365 24.3191C75.1758 24.3191 72.1271 27.3678 72.1271 31.1285C72.1271 34.8893 75.1758 37.9379 78.9365 37.9379C82.6973 37.9379 85.7459 34.8893 85.7459 31.1285Z" fill="#7887A5" fill-opacity="0.13"/>
<path d="M109.788 31.1287C109.788 27.368 106.74 24.3193 102.979 24.3193C99.2181 24.3193 96.1695 27.368 96.1695 31.1287C96.1695 34.8894 99.2181 37.9381 102.979 37.9381C106.74 37.9381 109.788 34.8894 109.788 31.1287Z" fill="#7887A5" fill-opacity="0.13"/>
<path d="M133.831 31.1285C133.831 27.3678 130.782 24.3191 127.021 24.3191C123.26 24.3191 120.212 27.3678 120.212 31.1285C120.212 34.8893 123.26 37.9379 127.021 37.9379C130.782 37.9379 133.831 34.8893 133.831 31.1285Z" fill="#7887A5" fill-opacity="0.13"/>
<path d="M157.873 31.1287C157.873 27.368 154.824 24.3193 151.064 24.3193C147.303 24.3193 144.254 27.368 144.254 31.1287C144.254 34.8894 147.303 37.9381 151.064 37.9381C154.824 37.9381 157.873 34.8894 157.873 31.1287Z" fill="#7887A5" fill-opacity="0.13"/>
<path d="M181.915 31.1287C181.915 27.368 178.867 24.3193 175.106 24.3193C171.345 24.3193 168.296 27.368 168.296 31.1287C168.296 34.8894 171.345 37.9381 175.106 37.9381C178.867 37.9381 181.915 34.8894 181.915 31.1287Z" fill="#7887A5" fill-opacity="0.13"/>
<path d="M205.958 31.1285C205.958 27.3678 202.909 24.3191 199.148 24.3191C195.388 24.3191 192.339 27.3678 192.339 31.1285C192.339 34.8893 195.388 37.9379 199.148 37.9379C202.909 37.9379 205.958 34.8893 205.958 31.1285Z" fill="#7887A5" fill-opacity="0.13"/>
<path d="M230 31.1287C230 27.368 226.951 24.3193 223.191 24.3193C219.43 24.3193 216.381 27.368 216.381 31.1287C216.381 34.8894 219.43 37.9381 223.191 37.9381C226.951 37.9381 230 34.8895 230 31.1287Z" fill="#7887A5" fill-opacity="0.13"/>
<path d="M13.6188 6.80938C13.6188 3.04864 10.5702 -1.91832e-05 6.80942 -1.95119e-05C3.04868 -1.98407e-05 5.47716e-07 3.04864 2.18942e-07 6.80938C-1.09833e-07 10.5701 3.04868 13.6188 6.80942 13.6188C10.5702 13.6188 13.6188 10.5701 13.6188 6.80938Z" fill="#7887A5" fill-opacity="0.13"/>
<path d="M37.6612 6.80939C37.6612 3.04864 34.6125 -1.70813e-05 30.8518 -1.74101e-05C27.091 -1.77389e-05 24.0423 3.04864 24.0423 6.80938C24.0423 10.5701 27.091 13.6188 30.8518 13.6188C34.6125 13.6188 37.6612 10.5701 37.6612 6.80939Z" fill="#7887A5" fill-opacity="0.13"/>
<path d="M61.7035 6.80939C61.7035 3.04865 58.6548 -1.49795e-05 54.8941 -1.53082e-05C51.1334 -1.5637e-05 48.0847 3.04864 48.0847 6.80939C48.0847 10.5701 51.1334 13.6188 54.8941 13.6188C58.6548 13.6188 61.7035 10.5701 61.7035 6.80939Z" fill="#7887A5" fill-opacity="0.13"/>
<path d="M85.7459 6.80939C85.7459 3.04865 82.6972 -1.28776e-05 78.9364 -1.32064e-05C75.1757 -1.35352e-05 72.127 3.04865 72.127 6.80939C72.127 10.5701 75.1757 13.6188 78.9364 13.6188C82.6972 13.6188 85.7459 10.5701 85.7459 6.80939Z" fill="#7887A5" fill-opacity="0.13"/>
<path d="M109.788 6.80939C109.788 3.04865 106.739 -1.07758e-05 102.979 -1.11046e-05C99.218 -1.14333e-05 96.1693 3.04865 96.1693 6.80939C96.1693 10.5701 99.218 13.6188 102.979 13.6188C106.739 13.6188 109.788 10.5701 109.788 6.80939Z" fill="#7887A5" fill-opacity="0.13"/>
<path d="M133.83 6.80939C133.83 3.04865 130.782 -8.67393e-06 127.021 -9.00271e-06C123.26 -9.33148e-06 120.212 3.04865 120.212 6.80939C120.212 10.5701 123.26 13.6188 127.021 13.6188C130.782 13.6188 133.83 10.5701 133.83 6.80939Z" fill="#7887A5" fill-opacity="0.13"/>
<path d="M157.873 6.8094C157.873 3.04865 154.824 -6.57208e-06 151.063 -6.90086e-06C147.303 -7.22963e-06 144.254 3.04865 144.254 6.80939C144.254 10.5701 147.303 13.6188 151.063 13.6188C154.824 13.6188 157.873 10.5701 157.873 6.8094Z" fill="#7887A5" fill-opacity="0.13"/>
<path d="M181.915 6.8094C181.915 3.04866 178.866 -4.47024e-06 175.106 -4.79901e-06C171.345 -5.12778e-06 168.296 3.04865 168.296 6.8094C168.296 10.5701 171.345 13.6188 175.106 13.6188C178.866 13.6188 181.915 10.5701 181.915 6.8094Z" fill="#7887A5" fill-opacity="0.13"/>
<path d="M205.957 6.8094C205.957 3.04866 202.909 -2.36839e-06 199.148 -2.69716e-06C195.387 -3.02594e-06 192.339 3.04866 192.339 6.8094C192.339 10.5701 195.387 13.6188 199.148 13.6188C202.909 13.6188 205.957 10.5701 205.957 6.8094Z" fill="#7887A5" fill-opacity="0.13"/>
<path d="M230 6.8094C230 3.04866 226.951 -2.66539e-07 223.19 -5.95313e-07C219.43 -9.24086e-07 216.381 3.04866 216.381 6.8094C216.381 10.5701 219.43 13.6188 223.19 13.6188C226.951 13.6188 230 10.5701 230 6.8094Z" fill="#7887A5" fill-opacity="0.13"/>
</svg>
