<svg width="109" height="68" viewBox="0 0 109 68" fill="none" xmlns="http://www.w3.org/2000/svg">
<path d="M10.6541 62.6666C10.6541 59.7211 8.36136 57.3333 5.5331 57.3333C2.70482 57.3333 0.412064 59.7211 0.412064 62.6666C0.412064 65.6122 2.70482 68 5.5331 68C8.36136 68 10.6541 65.6122 10.6541 62.6666Z" fill="#0E3075" fill-opacity="0.07"/>
<path d="M28.7352 62.6666C28.7352 59.7211 26.4424 57.3333 23.6142 57.3333C20.7859 57.3333 18.4931 59.7211 18.4931 62.6666C18.4931 65.6122 20.7859 68 23.6142 68C26.4424 68 28.7352 65.6122 28.7352 62.6666Z" fill="#0E3075" fill-opacity="0.07"/>
<path d="M46.8163 62.6667C46.8163 59.7211 44.5235 57.3333 41.6952 57.3333C38.867 57.3333 36.5742 59.7211 36.5742 62.6667C36.5742 65.6122 38.867 68 41.6952 68C44.5235 68 46.8163 65.6122 46.8163 62.6667Z" fill="#0E3075" fill-opacity="0.07"/>
<path d="M64.8973 62.6667C64.8973 59.7211 62.6046 57.3333 59.7763 57.3333C56.948 57.3333 54.6553 59.7211 54.6553 62.6667C54.6553 65.6122 56.948 68 59.7763 68C62.6046 68 64.8973 65.6122 64.8973 62.6667Z" fill="#0E3075" fill-opacity="0.07"/>
<path d="M82.9784 62.6667C82.9784 59.7211 80.6856 57.3333 77.8574 57.3333C75.0291 57.3333 72.7364 59.7211 72.7364 62.6667C72.7364 65.6122 75.0291 68 77.8574 68C80.6856 68 82.9784 65.6122 82.9784 62.6667Z" fill="#0E3075" fill-opacity="0.07"/>
<path d="M101.059 62.6667C101.059 59.7211 98.7667 57.3333 95.9385 57.3333C93.1102 57.3333 90.8174 59.7211 90.8174 62.6667C90.8174 65.6122 93.1102 68 95.9385 68C98.7667 68 101.059 65.6122 101.059 62.6667Z" fill="#0E3075" fill-opacity="0.07"/>
<path d="M119.141 62.6667C119.141 59.7211 116.848 57.3333 114.02 57.3333C111.191 57.3333 108.898 59.7211 108.898 62.6667C108.898 65.6122 111.191 68 114.02 68C116.848 68 119.141 65.6122 119.141 62.6667Z" fill="#0E3075" fill-opacity="0.07"/>
<path d="M137.222 62.6667C137.222 59.7211 134.929 57.3333 132.101 57.3333C129.272 57.3333 126.98 59.7211 126.98 62.6667C126.98 65.6122 129.272 68 132.101 68C134.929 68 137.222 65.6122 137.222 62.6667Z" fill="#0E3075" fill-opacity="0.07"/>
<path d="M155.303 62.6667C155.303 59.7211 153.01 57.3333 150.182 57.3333C147.353 57.3333 145.061 59.7211 145.061 62.6667C145.061 65.6122 147.353 68 150.182 68C153.01 68 155.303 65.6122 155.303 62.6667Z" fill="#0E3075" fill-opacity="0.07"/>
<path d="M173.384 62.6667C173.384 59.7211 171.091 57.3333 168.263 57.3333C165.434 57.3333 163.142 59.7211 163.142 62.6667C163.142 65.6122 165.434 68 168.263 68C171.091 68 173.384 65.6122 173.384 62.6667Z" fill="#0E3075" fill-opacity="0.07"/>
<path d="M10.6541 43.619C10.6541 40.6735 8.3613 38.2857 5.53304 38.2857C2.70476 38.2857 0.41199 40.6735 0.411989 43.619C0.411989 46.5645 2.70476 48.9524 5.53304 48.9524C8.3613 48.9524 10.6541 46.5646 10.6541 43.619Z" fill="#0E3075" fill-opacity="0.07"/>
<path d="M28.7351 43.619C28.7351 40.6735 26.4424 38.2857 23.6141 38.2857C20.7858 38.2857 18.4931 40.6735 18.4931 43.619C18.4931 46.5646 20.7858 48.9524 23.6141 48.9524C26.4424 48.9524 28.7351 46.5646 28.7351 43.619Z" fill="#0E3075" fill-opacity="0.07"/>
<path d="M46.8162 43.619C46.8162 40.6735 44.5234 38.2857 41.6952 38.2857C38.8669 38.2857 36.5741 40.6735 36.5741 43.619C36.5741 46.5646 38.8669 48.9524 41.6952 48.9524C44.5234 48.9524 46.8162 46.5646 46.8162 43.619Z" fill="#0E3075" fill-opacity="0.07"/>
<path d="M64.8973 43.619C64.8973 40.6735 62.6045 38.2857 59.7763 38.2857C56.948 38.2857 54.6552 40.6735 54.6552 43.619C54.6552 46.5646 56.948 48.9524 59.7763 48.9524C62.6045 48.9524 64.8973 46.5646 64.8973 43.619Z" fill="#0E3075" fill-opacity="0.07"/>
<path d="M82.9783 43.619C82.9783 40.6735 80.6855 38.2857 77.8573 38.2857C75.029 38.2857 72.7362 40.6735 72.7362 43.619C72.7362 46.5646 75.029 48.9524 77.8573 48.9524C80.6855 48.9524 82.9783 46.5646 82.9783 43.619Z" fill="#0E3075" fill-opacity="0.07"/>
<path d="M101.059 43.619C101.059 40.6735 98.7666 38.2857 95.9383 38.2857C93.1101 38.2857 90.8173 40.6735 90.8173 43.619C90.8173 46.5646 93.1101 48.9524 95.9383 48.9524C98.7666 48.9524 101.059 46.5646 101.059 43.619Z" fill="#0E3075" fill-opacity="0.07"/>
<path d="M119.14 43.619C119.14 40.6735 116.848 38.2857 114.019 38.2857C111.191 38.2857 108.898 40.6735 108.898 43.619C108.898 46.5646 111.191 48.9524 114.019 48.9524C116.848 48.9524 119.14 46.5646 119.14 43.619Z" fill="#0E3075" fill-opacity="0.07"/>
<path d="M137.222 43.619C137.222 40.6735 134.929 38.2857 132.1 38.2857C129.272 38.2857 126.979 40.6735 126.979 43.619C126.979 46.5646 129.272 48.9524 132.1 48.9524C134.929 48.9524 137.222 46.5646 137.222 43.619Z" fill="#0E3075" fill-opacity="0.07"/>
<path d="M155.303 43.619C155.303 40.6735 153.01 38.2857 150.182 38.2857C147.353 38.2857 145.061 40.6735 145.061 43.619C145.061 46.5646 147.353 48.9524 150.182 48.9524C153.01 48.9524 155.303 46.5646 155.303 43.619Z" fill="#0E3075" fill-opacity="0.07"/>
<path d="M173.384 43.619C173.384 40.6735 171.091 38.2857 168.263 38.2857C165.434 38.2857 163.142 40.6735 163.142 43.619C163.142 46.5646 165.434 48.9524 168.263 48.9524C171.091 48.9524 173.384 46.5646 173.384 43.619Z" fill="#0E3075" fill-opacity="0.07"/>
<path d="M10.6541 24.5713C10.6541 21.6257 8.3613 19.2379 5.53304 19.2379C2.70476 19.2379 0.411991 21.6257 0.411991 24.5713C0.411991 27.5168 2.70476 29.9046 5.53304 29.9046C8.3613 29.9046 10.6541 27.5168 10.6541 24.5713Z" fill="#0E3075" fill-opacity="0.07"/>
<path d="M28.7351 24.5713C28.7351 21.6257 26.4424 19.2379 23.6141 19.2379C20.7858 19.2379 18.4931 21.6257 18.4931 24.5713C18.4931 27.5168 20.7858 29.9046 23.6141 29.9046C26.4424 29.9046 28.7351 27.5168 28.7351 24.5713Z" fill="#0E3075" fill-opacity="0.07"/>
<path d="M46.8162 24.5713C46.8162 21.6257 44.5234 19.2379 41.6952 19.2379C38.8669 19.2379 36.5741 21.6257 36.5741 24.5713C36.5741 27.5168 38.8669 29.9046 41.6952 29.9046C44.5234 29.9046 46.8162 27.5168 46.8162 24.5713Z" fill="#0E3075" fill-opacity="0.07"/>
<path d="M64.8973 24.5713C64.8973 21.6257 62.6045 19.2379 59.7763 19.2379C56.948 19.2379 54.6552 21.6257 54.6552 24.5713C54.6552 27.5168 56.948 29.9046 59.7763 29.9046C62.6045 29.9046 64.8973 27.5168 64.8973 24.5713Z" fill="#0E3075" fill-opacity="0.07"/>
<path d="M82.9783 24.5713C82.9783 21.6257 80.6855 19.2379 77.8573 19.2379C75.029 19.2379 72.7362 21.6257 72.7362 24.5713C72.7362 27.5168 75.029 29.9046 77.8573 29.9046C80.6855 29.9046 82.9783 27.5168 82.9783 24.5713Z" fill="#0E3075" fill-opacity="0.07"/>
<path d="M101.059 24.5713C101.059 21.6257 98.7666 19.2379 95.9383 19.2379C93.1101 19.2379 90.8173 21.6257 90.8173 24.5713C90.8173 27.5168 93.1101 29.9046 95.9383 29.9046C98.7666 29.9046 101.059 27.5168 101.059 24.5713Z" fill="#0E3075" fill-opacity="0.07"/>
<path d="M119.14 24.5713C119.14 21.6258 116.848 19.2379 114.019 19.2379C111.191 19.2379 108.898 21.6257 108.898 24.5713C108.898 27.5168 111.191 29.9046 114.019 29.9046C116.848 29.9046 119.14 27.5168 119.14 24.5713Z" fill="#0E3075" fill-opacity="0.07"/>
<path d="M137.222 24.5713C137.222 21.6258 134.929 19.2379 132.1 19.2379C129.272 19.2379 126.979 21.6258 126.979 24.5713C126.979 27.5168 129.272 29.9046 132.1 29.9046C134.929 29.9046 137.222 27.5168 137.222 24.5713Z" fill="#0E3075" fill-opacity="0.07"/>
<path d="M155.303 24.5713C155.303 21.6258 153.01 19.2379 150.182 19.2379C147.353 19.2379 145.061 21.6258 145.061 24.5713C145.061 27.5168 147.353 29.9046 150.182 29.9046C153.01 29.9046 155.303 27.5168 155.303 24.5713Z" fill="#0E3075" fill-opacity="0.07"/>
<path d="M173.384 24.5713C173.384 21.6258 171.091 19.2379 168.263 19.2379C165.434 19.2379 163.142 21.6258 163.142 24.5713C163.142 27.5168 165.434 29.9046 168.263 29.9046C171.091 29.9046 173.384 27.5168 173.384 24.5713Z" fill="#0E3075" fill-opacity="0.07"/>
<path d="M10.6541 5.5238C10.6541 2.57828 8.3613 0.19046 5.53304 0.19046C2.70476 0.19046 0.411993 2.57828 0.411993 5.5238C0.411992 8.46932 2.70476 10.8571 5.53304 10.8571C8.3613 10.8571 10.6541 8.46932 10.6541 5.5238Z" fill="#0E3075" fill-opacity="0.07"/>
<path d="M28.7351 5.5235C28.7351 2.57798 26.4424 0.190165 23.6141 0.190164C20.7858 0.190164 18.4931 2.57798 18.4931 5.5235C18.4931 8.46902 20.7858 10.8568 23.6141 10.8568C26.4424 10.8568 28.7351 8.46902 28.7351 5.5235Z" fill="#0E3075" fill-opacity="0.07"/>
<path d="M46.8162 5.5238C46.8162 2.57828 44.5234 0.190464 41.6952 0.190463C38.8669 0.190463 36.5741 2.57828 36.5741 5.5238C36.5741 8.46933 38.8669 10.8571 41.6952 10.8571C44.5234 10.8571 46.8162 8.46933 46.8162 5.5238Z" fill="#0E3075" fill-opacity="0.07"/>
<path d="M64.8973 5.52381C64.8973 2.57828 62.6045 0.190465 59.7763 0.190465C56.948 0.190465 54.6552 2.57828 54.6552 5.5238C54.6552 8.46933 56.948 10.8571 59.7763 10.8571C62.6045 10.8571 64.8973 8.46933 64.8973 5.52381Z" fill="#0E3075" fill-opacity="0.07"/>
<path d="M82.9783 5.52381C82.9783 2.57828 80.6855 0.190467 77.8573 0.190467C75.029 0.190467 72.7362 2.57828 72.7362 5.52381C72.7362 8.46933 75.029 10.8571 77.8573 10.8571C80.6855 10.8571 82.9783 8.46933 82.9783 5.52381Z" fill="#0E3075" fill-opacity="0.07"/>
<path d="M101.059 5.52381C101.059 2.57829 98.7666 0.190469 95.9383 0.190468C93.1101 0.190468 90.8173 2.57829 90.8173 5.52381C90.8173 8.46933 93.1101 10.8571 95.9383 10.8571C98.7666 10.8571 101.059 8.46933 101.059 5.52381Z" fill="#0E3075" fill-opacity="0.07"/>
<path d="M119.14 5.52351C119.14 2.57799 116.848 0.190173 114.019 0.190173C111.191 0.190172 108.898 2.57799 108.898 5.52351C108.898 8.46903 111.191 10.8568 114.019 10.8568C116.848 10.8568 119.14 8.46903 119.14 5.52351Z" fill="#0E3075" fill-opacity="0.07"/>
<path d="M137.222 5.52351C137.222 2.57799 134.929 0.190174 132.1 0.190174C129.272 0.190174 126.979 2.57799 126.979 5.52351C126.979 8.46903 129.272 10.8568 132.1 10.8568C134.929 10.8568 137.222 8.46903 137.222 5.52351Z" fill="#0E3075" fill-opacity="0.07"/>
<path d="M155.303 5.52381C155.303 2.57829 153.01 0.190474 150.182 0.190473C147.353 0.190473 145.061 2.57829 145.061 5.52381C145.061 8.46933 147.353 10.8571 150.182 10.8571C153.01 10.8571 155.303 8.46934 155.303 5.52381Z" fill="#0E3075" fill-opacity="0.07"/>
<path d="M173.384 5.52351C173.384 2.578 171.091 0.190178 168.263 0.190177C165.434 0.190177 163.142 2.57799 163.142 5.52351C163.142 8.46904 165.434 10.8568 168.263 10.8568C171.091 10.8568 173.384 8.46904 173.384 5.52351Z" fill="#0E3075" fill-opacity="0.07"/>
<path d="M10.6541 -13.5238C10.6541 -16.4693 8.36137 -18.8572 5.5331 -18.8572C2.70483 -18.8572 0.412071 -16.4693 0.41207 -13.5238C0.41207 -10.5783 2.70483 -8.19048 5.5331 -8.19048C8.36137 -8.19048 10.6541 -10.5783 10.6541 -13.5238Z" fill="#0E3075" fill-opacity="0.07"/>
<path d="M28.7352 -13.5238C28.7352 -16.4693 26.4424 -18.8572 23.6142 -18.8572C20.7859 -18.8572 18.4932 -16.4693 18.4932 -13.5238C18.4932 -10.5783 20.7859 -8.19048 23.6142 -8.19048C26.4424 -8.19048 28.7352 -10.5783 28.7352 -13.5238Z" fill="#0E3075" fill-opacity="0.07"/>
<path d="M46.8163 -13.5238C46.8163 -16.4693 44.5235 -18.8572 41.6952 -18.8572C38.867 -18.8572 36.5742 -16.4693 36.5742 -13.5238C36.5742 -10.5783 38.867 -8.19048 41.6952 -8.19048C44.5235 -8.19048 46.8163 -10.5783 46.8163 -13.5238Z" fill="#0E3075" fill-opacity="0.07"/>
<path d="M64.8973 -13.5238C64.8973 -16.4693 62.6046 -18.8572 59.7763 -18.8572C56.948 -18.8572 54.6553 -16.4693 54.6553 -13.5238C54.6553 -10.5783 56.948 -8.19048 59.7763 -8.19048C62.6046 -8.19048 64.8973 -10.5783 64.8973 -13.5238Z" fill="#0E3075" fill-opacity="0.07"/>
<path d="M82.9784 -13.5238C82.9784 -16.4693 80.6857 -18.8572 77.8574 -18.8572C75.0291 -18.8572 72.7364 -16.4693 72.7364 -13.5238C72.7364 -10.5783 75.0291 -8.19048 77.8574 -8.19048C80.6857 -8.19048 82.9784 -10.5783 82.9784 -13.5238Z" fill="#0E3075" fill-opacity="0.07"/>
<path d="M101.059 -13.5238C101.059 -16.4693 98.7667 -18.8572 95.9385 -18.8572C93.1102 -18.8572 90.8174 -16.4693 90.8174 -13.5238C90.8174 -10.5783 93.1102 -8.19048 95.9385 -8.19047C98.7667 -8.19047 101.059 -10.5783 101.059 -13.5238Z" fill="#0E3075" fill-opacity="0.07"/>
<path d="M119.141 -13.5238C119.141 -16.4693 116.848 -18.8572 114.02 -18.8572C111.191 -18.8572 108.899 -16.4693 108.899 -13.5238C108.899 -10.5783 111.191 -8.19047 114.02 -8.19047C116.848 -8.19047 119.141 -10.5783 119.141 -13.5238Z" fill="#0E3075" fill-opacity="0.07"/>
<path d="M137.222 -13.5238C137.222 -16.4693 134.929 -18.8572 132.101 -18.8572C129.272 -18.8572 126.98 -16.4693 126.98 -13.5238C126.98 -10.5783 129.272 -8.19047 132.101 -8.19047C134.929 -8.19047 137.222 -10.5783 137.222 -13.5238Z" fill="#0E3075" fill-opacity="0.07"/>
<path d="M155.303 -13.5238C155.303 -16.4693 153.01 -18.8571 150.182 -18.8571C147.353 -18.8571 145.061 -16.4693 145.061 -13.5238C145.061 -10.5783 147.353 -8.19047 150.182 -8.19047C153.01 -8.19047 155.303 -10.5783 155.303 -13.5238Z" fill="#0E3075" fill-opacity="0.07"/>
<path d="M173.384 -13.5238C173.384 -16.4693 171.091 -18.8571 168.263 -18.8571C165.435 -18.8571 163.142 -16.4693 163.142 -13.5238C163.142 -10.5783 165.435 -8.19047 168.263 -8.19047C171.091 -8.19047 173.384 -10.5783 173.384 -13.5238Z" fill="#0E3075" fill-opacity="0.07"/>
<path d="M10.6541 -32.5716C10.6541 -35.5171 8.36131 -37.9049 5.53304 -37.9049C2.70477 -37.9049 0.411996 -35.5171 0.411996 -32.5716C0.411996 -29.6261 2.70477 -27.2383 5.53304 -27.2383C8.36131 -27.2383 10.6541 -29.6261 10.6541 -32.5716Z" fill="#0E3075" fill-opacity="0.07"/>
<path d="M28.7351 -32.5716C28.7351 -35.5171 26.4424 -37.9049 23.6141 -37.9049C20.7858 -37.9049 18.4931 -35.5171 18.4931 -32.5716C18.4931 -29.6261 20.7858 -27.2382 23.6141 -27.2382C26.4424 -27.2382 28.7351 -29.6261 28.7351 -32.5716Z" fill="#0E3075" fill-opacity="0.07"/>
<path d="M46.8162 -32.5716C46.8162 -35.5171 44.5234 -37.9049 41.6952 -37.9049C38.8669 -37.9049 36.5742 -35.5171 36.5742 -32.5716C36.5742 -29.6261 38.8669 -27.2382 41.6952 -27.2382C44.5234 -27.2382 46.8162 -29.6261 46.8162 -32.5716Z" fill="#0E3075" fill-opacity="0.07"/>
<path d="M64.8973 -32.5716C64.8973 -35.5171 62.6045 -37.9049 59.7763 -37.9049C56.948 -37.9049 54.6552 -35.5171 54.6552 -32.5716C54.6552 -29.6261 56.948 -27.2382 59.7763 -27.2382C62.6045 -27.2382 64.8973 -29.6261 64.8973 -32.5716Z" fill="#0E3075" fill-opacity="0.07"/>
<path d="M82.9783 -32.5716C82.9783 -35.5171 80.6855 -37.9049 77.8573 -37.9049C75.029 -37.9049 72.7362 -35.5171 72.7362 -32.5716C72.7362 -29.6261 75.029 -27.2382 77.8573 -27.2382C80.6855 -27.2382 82.9783 -29.6261 82.9783 -32.5716Z" fill="#0E3075" fill-opacity="0.07"/>
<path d="M101.059 -32.5716C101.059 -35.5171 98.7666 -37.9049 95.9383 -37.9049C93.1101 -37.9049 90.8173 -35.5171 90.8173 -32.5716C90.8173 -29.6261 93.1101 -27.2382 95.9383 -27.2382C98.7666 -27.2382 101.059 -29.6261 101.059 -32.5716Z" fill="#0E3075" fill-opacity="0.07"/>
<path d="M119.14 -32.5716C119.14 -35.5171 116.848 -37.9049 114.019 -37.9049C111.191 -37.9049 108.898 -35.5171 108.898 -32.5716C108.898 -29.6261 111.191 -27.2382 114.019 -27.2382C116.848 -27.2382 119.14 -29.6261 119.14 -32.5716Z" fill="#0E3075" fill-opacity="0.07"/>
<path d="M137.222 -32.5716C137.222 -35.5171 134.929 -37.9049 132.1 -37.9049C129.272 -37.9049 126.979 -35.5171 126.979 -32.5716C126.979 -29.6261 129.272 -27.2382 132.1 -27.2382C134.929 -27.2382 137.222 -29.6261 137.222 -32.5716Z" fill="#0E3075" fill-opacity="0.07"/>
<path d="M155.303 -32.5716C155.303 -35.5171 153.01 -37.9049 150.182 -37.9049C147.353 -37.9049 145.061 -35.5171 145.061 -32.5716C145.061 -29.6261 147.353 -27.2382 150.182 -27.2382C153.01 -27.2382 155.303 -29.6261 155.303 -32.5716Z" fill="#0E3075" fill-opacity="0.07"/>
<path d="M173.384 -32.5716C173.384 -35.5171 171.091 -37.9049 168.263 -37.9049C165.434 -37.9049 163.142 -35.5171 163.142 -32.5716C163.142 -29.6261 165.434 -27.2382 168.263 -27.2382C171.091 -27.2382 173.384 -29.6261 173.384 -32.5716Z" fill="#0E3075" fill-opacity="0.07"/>
<path d="M10.6541 -51.6192C10.6541 -54.5647 8.36137 -56.9525 5.53311 -56.9525C2.70483 -56.9525 0.412074 -54.5647 0.412074 -51.6192C0.412073 -48.6737 2.70483 -46.2859 5.53311 -46.2859C8.36137 -46.2859 10.6541 -48.6737 10.6541 -51.6192Z" fill="#0E3075" fill-opacity="0.07"/>
<path d="M28.7352 -51.6191C28.7352 -54.5646 26.4424 -56.9524 23.6142 -56.9524C20.7859 -56.9524 18.4932 -54.5646 18.4932 -51.6191C18.4932 -48.6735 20.7859 -46.2857 23.6142 -46.2857C26.4424 -46.2857 28.7352 -48.6735 28.7352 -51.6191Z" fill="#0E3075" fill-opacity="0.07"/>
<path d="M46.8163 -51.6192C46.8163 -54.5647 44.5235 -56.9525 41.6952 -56.9525C38.867 -56.9525 36.5742 -54.5647 36.5742 -51.6192C36.5742 -48.6737 38.867 -46.2859 41.6952 -46.2859C44.5235 -46.2859 46.8163 -48.6737 46.8163 -51.6192Z" fill="#0E3075" fill-opacity="0.07"/>
<path d="M64.8973 -51.6192C64.8973 -54.5647 62.6046 -56.9525 59.7763 -56.9525C56.948 -56.9525 54.6553 -54.5647 54.6553 -51.6192C54.6553 -48.6737 56.948 -46.2859 59.7763 -46.2859C62.6046 -46.2859 64.8973 -48.6737 64.8973 -51.6192Z" fill="#0E3075" fill-opacity="0.07"/>
<path d="M82.9784 -51.619C82.9784 -54.5646 80.6857 -56.9524 77.8574 -56.9524C75.0291 -56.9524 72.7364 -54.5646 72.7364 -51.6191C72.7364 -48.6735 75.0291 -46.2857 77.8574 -46.2857C80.6857 -46.2857 82.9784 -48.6735 82.9784 -51.619Z" fill="#0E3075" fill-opacity="0.07"/>
<path d="M101.059 -51.6192C101.059 -54.5647 98.7667 -56.9525 95.9385 -56.9525C93.1102 -56.9525 90.8174 -54.5647 90.8174 -51.6192C90.8174 -48.6737 93.1102 -46.2859 95.9385 -46.2858C98.7667 -46.2858 101.059 -48.6737 101.059 -51.6192Z" fill="#0E3075" fill-opacity="0.07"/>
<path d="M119.141 -51.619C119.141 -54.5646 116.848 -56.9524 114.02 -56.9524C111.191 -56.9524 108.899 -54.5646 108.899 -51.619C108.899 -48.6735 111.191 -46.2857 114.02 -46.2857C116.848 -46.2857 119.141 -48.6735 119.141 -51.619Z" fill="#0E3075" fill-opacity="0.07"/>
<path d="M137.222 -51.619C137.222 -54.5646 134.929 -56.9524 132.101 -56.9524C129.272 -56.9524 126.98 -54.5646 126.98 -51.619C126.98 -48.6735 129.272 -46.2857 132.101 -46.2857C134.929 -46.2857 137.222 -48.6735 137.222 -51.619Z" fill="#0E3075" fill-opacity="0.07"/>
<path d="M155.303 -51.6192C155.303 -54.5647 153.01 -56.9525 150.182 -56.9525C147.353 -56.9525 145.061 -54.5647 145.061 -51.6192C145.061 -48.6737 147.353 -46.2858 150.182 -46.2858C153.01 -46.2858 155.303 -48.6737 155.303 -51.6192Z" fill="#0E3075" fill-opacity="0.07"/>
<path d="M173.384 -51.619C173.384 -54.5646 171.091 -56.9524 168.263 -56.9524C165.435 -56.9524 163.142 -54.5646 163.142 -51.619C163.142 -48.6735 165.435 -46.2857 168.263 -46.2857C171.091 -46.2857 173.384 -48.6735 173.384 -51.619Z" fill="#0E3075" fill-opacity="0.07"/>
<path d="M10.6541 -70.6667C10.6541 -73.6122 8.36131 -76 5.53305 -76C2.70477 -76 0.411999 -73.6122 0.411999 -70.6667C0.411999 -67.7211 2.70477 -65.3333 5.53305 -65.3333C8.36131 -65.3333 10.6541 -67.7211 10.6541 -70.6667Z" fill="#0E3075" fill-opacity="0.07"/>
<path d="M28.7351 -70.6667C28.7351 -73.6122 26.4424 -76 23.6141 -76C20.7858 -76 18.4931 -73.6122 18.4931 -70.6667C18.4931 -67.7211 20.7858 -65.3333 23.6141 -65.3333C26.4424 -65.3333 28.7351 -67.7211 28.7351 -70.6667Z" fill="#0E3075" fill-opacity="0.07"/>
<path d="M46.8162 -70.6667C46.8162 -73.6122 44.5234 -76 41.6952 -76C38.8669 -76 36.5742 -73.6122 36.5742 -70.6667C36.5742 -67.7211 38.8669 -65.3333 41.6952 -65.3333C44.5234 -65.3333 46.8162 -67.7211 46.8162 -70.6667Z" fill="#0E3075" fill-opacity="0.07"/>
<path d="M64.8973 -70.6667C64.8973 -73.6122 62.6045 -76 59.7763 -76C56.948 -76 54.6552 -73.6122 54.6552 -70.6667C54.6552 -67.7211 56.948 -65.3333 59.7763 -65.3333C62.6045 -65.3333 64.8973 -67.7211 64.8973 -70.6667Z" fill="#0E3075" fill-opacity="0.07"/>
<path d="M82.9783 -70.6667C82.9783 -73.6122 80.6855 -76 77.8573 -76C75.029 -76 72.7362 -73.6122 72.7362 -70.6667C72.7362 -67.7211 75.029 -65.3333 77.8573 -65.3333C80.6855 -65.3333 82.9783 -67.7211 82.9783 -70.6667Z" fill="#0E3075" fill-opacity="0.07"/>
<path d="M101.059 -70.6667C101.059 -73.6122 98.7666 -76 95.9383 -76C93.1101 -76 90.8173 -73.6122 90.8173 -70.6667C90.8173 -67.7211 93.1101 -65.3333 95.9383 -65.3333C98.7666 -65.3333 101.059 -67.7211 101.059 -70.6667Z" fill="#0E3075" fill-opacity="0.07"/>
<path d="M119.14 -70.6667C119.14 -73.6122 116.848 -76 114.019 -76C111.191 -76 108.898 -73.6122 108.898 -70.6667C108.898 -67.7211 111.191 -65.3333 114.019 -65.3333C116.848 -65.3333 119.14 -67.7211 119.14 -70.6667Z" fill="#0E3075" fill-opacity="0.07"/>
<path d="M137.222 -70.6667C137.222 -73.6122 134.929 -76 132.1 -76C129.272 -76 126.979 -73.6122 126.979 -70.6667C126.979 -67.7211 129.272 -65.3333 132.1 -65.3333C134.929 -65.3333 137.222 -67.7211 137.222 -70.6667Z" fill="#0E3075" fill-opacity="0.07"/>
<path d="M155.303 -70.6667C155.303 -73.6122 153.01 -76 150.182 -76C147.353 -76 145.061 -73.6122 145.061 -70.6667C145.061 -67.7211 147.353 -65.3333 150.182 -65.3333C153.01 -65.3333 155.303 -67.7211 155.303 -70.6667Z" fill="#0E3075" fill-opacity="0.07"/>
<path d="M173.384 -70.6667C173.384 -73.6122 171.091 -76 168.263 -76C165.434 -76 163.142 -73.6122 163.142 -70.6667C163.142 -67.7211 165.434 -65.3333 168.263 -65.3333C171.091 -65.3333 173.384 -67.7211 173.384 -70.6667Z" fill="#0E3075" fill-opacity="0.07"/>
</svg>
